<?xml version="1.0" standalone="no"?>
<!DOCTYPE svg PUBLIC "-//W3C//DTD SVG 1.1//EN" "http://www.w3.org/Graphics/SVG/1.1/DTD/svg11.dtd" >
<svg xmlns="http://www.w3.org/2000/svg">
<metadata></metadata>
<defs>
<font id="minya_nouvelleregular" horiz-adv-x="968" >
<font-face units-per-em="2048" ascent="1569" descent="-479" />
<missing-glyph horiz-adv-x="616" />
<glyph unicode="&#x28;C&#x29;" horiz-adv-x="1304" d="M53 680q0 154 47 286t130 230t194 153.5t240 55.5q135 0 243.5 -64.5t183 -172t114.5 -249t40 -296.5q0 -152 -41 -278t-116.5 -215t-180 -138t-231.5 -49q-139 0 -254 58t-197 158.5t-127 234.5t-45 286zM143 670q0 -139 39 -255t106.5 -199t161 -129t201.5 -46 q111 0 203 47t158.5 131t103.5 200t37 255q0 41 -3 83t-11 85q-33 221 -154 348t-307 127q-117 0 -214 -51.5t-169 -139.5t-112 -205.5t-40 -250.5zM350 635q0 80 23.5 147.5t66.5 116.5t103.5 75.5t134.5 26.5q104 0 175 -43t71 -118q0 -43 -30 -75t-77 -32q-45 0 -74.5 33 t-29.5 76t35 67q-20 2 -38 3t-34 1q-104 0 -162.5 -67.5t-58.5 -177.5q0 -49 16 -97.5t45 -86.5t67 -62.5t81 -24.5q49 0 99 29t73 72l110 -33q-16 -31 -46 -59.5t-67.5 -51t-79.5 -36t-83 -13.5q-68 0 -126.5 26.5t-101.5 70.5t-67.5 104.5t-24.5 128.5z" />
<glyph unicode="&#x28;R&#x29;" horiz-adv-x="1288" d="M53 680q0 154 47 286t130 230t195 153.5t241 55.5q135 0 243.5 -64.5t183 -172t114.5 -249t40 -296.5q0 -152 -41 -278t-116.5 -215t-180 -138t-231.5 -49q-139 0 -254 58t-198 158.5t-128 234.5t-45 286zM143 670q0 -139 39 -255t107.5 -199t162 -129t201.5 -46 q227 0 361 176q-72 8 -129.5 63.5t-108.5 125t-97 137t-97 98.5l-33 -2q0 -59 -2 -114.5t-6 -102.5q49 -2 82 -10l-11 -62q-23 4 -46 5t-54 3l-106 7v65h57q12 0 14 -2q4 33 6 104.5t4 150.5t3.5 150.5t5.5 106.5q-12 -4 -29.5 -8t-44.5 -8l-8 69q86 12 149 13 q57 0 111.5 -11.5t97.5 -33t68.5 -53t25.5 -74.5q0 -39 -21.5 -74t-54 -60.5t-71.5 -40t-74 -14.5q72 -35 148 -153q129 -199 270 -199q45 92 68.5 183t23.5 198q0 143 -34 262t-95 204t-149.5 131t-196.5 46q-117 0 -215 -51.5t-170 -139.5t-112 -205.5t-40 -250.5z M547 834q0 -29 1 -59t1 -58q18 -4 34.5 -4h32.5q31 0 64 8t60.5 23.5t45 37t17.5 49.5q0 47 -51.5 80t-143.5 33h-26q-21 0 -23 -2q-8 -14 -10 -41t-2 -67z" />
<glyph horiz-adv-x="2048" />
<glyph horiz-adv-x="2048" />
<glyph unicode="&#xd;" horiz-adv-x="616" />
<glyph horiz-adv-x="616" />
<glyph unicode=" "  horiz-adv-x="616" />
<glyph unicode="&#x09;" horiz-adv-x="616" />
<glyph unicode="&#xa0;" horiz-adv-x="616" />
<glyph unicode="!" horiz-adv-x="464" d="M72 113q0 68 42 111.5t107 43.5q66 0 108 -43.5t42 -111.5q0 -63 -41 -113.5t-107 -50.5q-70 0 -110.5 44t-40.5 120zM158 369q0 293 15 549t44 495l135 -16q-27 -242 -41 -490t-14 -538h-139z" />
<glyph unicode="&#x22;" horiz-adv-x="550" d="M76 1268v96l4 16l135 13q-2 -2 -2 -29v-80q0 -82 7 -173t20 -196l-136 -24q-16 98 -22 191.5t-6 185.5zM334 1249v99q0 12 2 14l137 14q-2 -2 -2 -28v-80q0 -84 7 -175.5t20 -195.5l-136 -25q-16 98 -22 191.5t-6 185.5z" />
<glyph unicode="#" horiz-adv-x="976" d="M68 424v154h192l39 167l-193 -18l-16 154q43 4 103.5 10t146.5 14q23 82 48.5 163t53.5 169l148 -51q-31 -88 -52.5 -155.5t-35.5 -117.5h106q33 98 53.5 174t32.5 130l152 -33q-20 -82 -36.5 -150.5t-37.5 -128.5q45 -4 89 -8t89 -8l-22 -152q-49 4 -101.5 8.5 t-105.5 8.5l-47 -156l223 10l10 -151l-272 -17q-12 -55 -19.5 -128.5t-7.5 -166.5h-135q0 86 4 157t12 130l-108 -4q-12 -66 -22.5 -133.5t-20.5 -138.5l-148 18q8 61 18.5 124.5t20.5 125.5h-161zM414 582l106 6q10 39 20.5 81t24.5 89h-92q-12 0 -21.5 -21.5t-16.5 -50.5 t-13 -58.5t-8 -45.5z" />
<glyph unicode="$" horiz-adv-x="937" d="M70 326l118 129q109 -109 211 -115q-4 37 -6 97.5t-2 152.5q-293 115 -293 328q0 57 24.5 110t65.5 94t95.5 66.5t113.5 30.5l-14 163l102 7q2 -27 4.5 -70t12.5 -105q68 -2 129 -22l12 127l162 -19q-10 -53 -13.5 -100t-3.5 -84q0 -29 1.5 -50.5t3.5 -37.5l-150 -55 q-53 86 -139 96l-6 -356q352 -113 352 -258q0 -80 -24.5 -137.5t-68.5 -96.5t-103.5 -57.5t-129.5 -18.5q2 -6 2 -24.5v-40.5q0 -33 -1 -65.5t-1 -49.5l-116 -4q0 8 2 32.5t4 55.5t4 63.5t2 55.5q-49 0 -101.5 14.5t-99.5 37t-86 50t-63 56.5zM260 907q0 -117 135 -159 q2 90 3 163.5t1 161.5q-29 -4 -54.5 -19.5t-43.5 -38t-29.5 -50t-11.5 -58.5zM496 549q0 -68 5 -130.5t9 -121.5q6 -4 22 -4q78 0 119 38t41 83q0 82 -196 135z" />
<glyph unicode="%" horiz-adv-x="1239" d="M98 1069q0 63 24.5 115.5t67.5 89.5t98.5 56.5t117.5 19.5q117 0 190.5 -62.5t73.5 -179.5q0 -70 -19.5 -130t-55.5 -104.5t-87 -70t-113 -25.5q-63 0 -117.5 22.5t-94.5 61.5t-62.5 92.5t-22.5 114.5zM150 47q229 305 420.5 632t361.5 701l139 -65q-356 -770 -803 -1368 zM246 1057q0 -66 34.5 -101.5t94.5 -35.5q66 0 105.5 45.5t39.5 111.5q0 129 -123 129q-31 0 -57.5 -12t-48 -32.5t-33.5 -48.5t-12 -56zM598 240q0 61 23.5 112t64.5 89t96.5 59.5t120.5 21.5q119 0 191.5 -63t72.5 -178q0 -72 -19.5 -132.5t-55 -104.5t-87 -68.5 t-112.5 -24.5q-66 0 -119 22.5t-93 62.5t-61.5 92t-21.5 112zM743 229q0 -61 35 -99t94 -38q66 0 106 45t40 115q0 127 -125 127q-59 0 -104.5 -45t-45.5 -105z" />
<glyph unicode="&#x26;" horiz-adv-x="1150" d="M61 225q0 285 273 609q-82 145 -82 262q0 104 65.5 169.5t169.5 65.5q86 0 140.5 -50t54.5 -136q0 -135 -160 -322q45 -72 99.5 -149.5t121.5 -163.5q41 82 66 131t41 84t28.5 64.5t26.5 70.5l146 -49q-39 -115 -89.5 -220.5t-111.5 -215.5q59 -72 128 -139.5t152 -126.5 l-116 -142q-47 39 -108.5 106.5t-143.5 166.5q-229 -309 -455 -310q-115 0 -180.5 83t-65.5 212zM201 242q0 -76 32.5 -118t92.5 -42q162 0 336 285q-23 27 -83.5 109.5t-158.5 223.5q-219 -256 -219 -458zM406 1106q0 -45 38 -135q84 105 84 164q0 43 -32 43q-90 0 -90 -72 z" />
<glyph unicode="'" horiz-adv-x="296" d="M76 819q4 53 7 194.5t3 375.5h156q0 -170 -6.5 -313.5t-22.5 -270.5z" />
<glyph unicode="(" horiz-adv-x="634" d="M172 643q0 518 330 766l92 -123q-272 -190 -272 -629q0 -395 198 -710l-131 -82q-217 336 -217 778z" />
<glyph unicode=")" horiz-adv-x="624" d="M51 -78q68 68 118 153t85 180t52.5 195.5t17.5 196.5q0 428 -273 656l96 118q154 -119 240 -314.5t86 -453.5q0 -262 -84 -474t-231 -365z" />
<glyph unicode="*" horiz-adv-x="913" d="M86 397q78 98 148.5 183.5t152.5 162.5q-37 41 -102.5 94.5t-169.5 118.5l88 129l106 -67q33 -20 57.5 -40t43.5 -38v23q0 154 -13 274l152 16q10 -78 15 -147.5t5 -138.5q0 -18 -1 -35t-1 -33l213 174l97 -121q-47 -37 -116 -93t-161 -132q43 -55 111.5 -132t160.5 -181 l-102 -105q-49 47 -101.5 103.5t-107.5 126.5q10 -135 13.5 -218t3.5 -118h-154q0 47 -18 340q-49 -53 -97.5 -112.5t-99.5 -123.5z" />
<glyph unicode="+" horiz-adv-x="946" d="M102 571l13 158l309 -12q2 2 2 20v54q0 49 -3 100t-13 108l153 19q18 -127 19 -240v-32.5t-2 -32.5h141q6 2 12 2h10h119v-146l-291 -2q-4 -70 -6 -141.5t-2 -146.5h-155q0 80 2 153.5t6 138.5q-2 2 -25 2h-24q-23 0 -50.5 -3t-70.5 -3h-68q-20 0 -39.5 1t-36.5 3z" />
<glyph unicode="," horiz-adv-x="442" d="M84 98q0 70 42 120t107 50q78 0 115 -47t37 -119q0 -209 -266 -325l-29 96q80 6 133 80q-139 18 -139 145z" />
<glyph unicode="-" horiz-adv-x="579" d="M35 612v156h215q23 0 45 2t43 2h211v-139q-35 0 -106.5 -3t-149.5 -7.5t-149.5 -7.5t-108.5 -3z" />
<glyph unicode="." horiz-adv-x="456" d="M92 113q0 68 40 111.5t110 43.5q66 0 107.5 -43.5t41.5 -111.5q0 -63 -41 -113.5t-106 -50.5q-72 0 -112 44t-40 120z" />
<glyph unicode="/" horiz-adv-x="944" d="M43 18q59 59 127 156.5t145 239.5q20 37 59.5 113.5t87.5 174t101 205t101.5 204.5t87.5 173t61 113l131 -78q-29 -45 -71 -125t-90 -177t-99 -201.5t-98 -198t-84 -168t-58 -109.5q-152 -266 -301 -422z" />
<glyph unicode="0" horiz-adv-x="944" d="M70 315q0 102 29.5 192.5t83 158t129 106.5t167.5 39q86 0 158 -36t124 -98.5t80.5 -149.5t28.5 -189q0 -90 -27.5 -165t-78.5 -128t-124 -83t-161 -30q-86 0 -160.5 28t-130 79t-87 120.5t-31.5 155.5zM217 315q0 -104 64.5 -168.5t169.5 -64.5q61 0 112 21.5t88 59.5 t57.5 90.5t20.5 113.5q0 55 -17.5 106t-50 89t-79.5 61.5t-107 23.5q-61 0 -108.5 -26.5t-81 -71.5t-51 -105.5t-17.5 -128.5z" />
<glyph unicode="1" horiz-adv-x="802" d="M49 90q78 16 131 22.5t84 6.5q63 0 88 -6q0 174 10.5 332.5t30.5 312.5q-115 -37 -272 -37v153q135 0 438 76q-55 -455 -55 -780v-74q51 -4 117.5 -6t152.5 -2v-141q-29 0 -90 2t-129 5t-128 5t-89 2q-78 0 -142.5 -5t-117.5 -15z" />
<glyph unicode="2" horiz-adv-x="866" d="M70 92q135 170 203.5 259t78.5 102q182 256 183 385q0 43 -17 69q-143 -2 -235 -190l-138 71q25 47 68 93.5t95 82t107.5 58t106.5 22.5q160 0 160 -198q0 -176 -152 -387q-66 -82 -135 -165t-135 -167q109 -6 251 -20.5t329 -36.5l-17 -150q-231 29 -413.5 43t-329.5 14 z" />
<glyph unicode="3" horiz-adv-x="686" d="M68 731v158q29 0 80 -3t112.5 -8.5t129 -10.5t130 -10t113.5 -8t80 -3q-31 -47 -75 -103.5t-97 -119.5l-187 -217h17q55 0 102 -25t81 -67t53.5 -97t19.5 -115q0 -78 -32 -147.5t-89 -130t-139 -109.5t-183 -82l-47 144q70 25 133.5 60.5t109.5 81.5t73.5 99.5 t27.5 108.5q0 53 -31.5 89t-84.5 36q-70 0 -189 -33l-53 86q53 86 132 185.5t183 220.5q-119 10 -211 15t-159 5z" />
<glyph unicode="4" horiz-adv-x="880" d="M43 92q369 541 418 1082l153 -15q-27 -268 -119 -526t-262 -524l31 -3q8 0 15.5 -1t17.5 -1q45 0 108.5 4.5t145.5 8.5q10 164 16 281.5t8 205.5l154 -4q-2 -82 -10 -193.5t-19 -271.5l142 19l24 -152l-178 -25l-10 -237l-146 -6l7 231h-41q-236 0 -402 6z" />
<glyph unicode="5" horiz-adv-x="831" d="M29 -123l127 92q88 -156 243 -155q43 0 86 15t77 44t54.5 68t20.5 88q0 125 -71.5 192.5t-207.5 67.5q-106 0 -204 -41l-84 90q102 236 102 471v35h258q27 0 54.5 2t52.5 2h256v-154q-31 0 -88.5 2t-119 5.5t-115.5 5.5t-81 2h-57q-4 0 -8.5 -1t-10.5 -3q-4 -72 -19 -144 t-38 -149q39 12 74 19t67 7q80 0 150.5 -32.5t125 -87t85 -125t30.5 -146.5q0 -72 -33.5 -139.5t-89 -119.5t-124 -83t-135.5 -31q-197 0 -377 203z" />
<glyph unicode="6" horiz-adv-x="833" d="M53 283q0 131 33 267t93.5 267t146.5 254t194 232l111 -109q-356 -381 -426 -725q98 141 221 141q72 0 137.5 -28.5t114.5 -78.5t77.5 -117.5t28.5 -145.5q0 -74 -28.5 -141.5t-77.5 -120t-115.5 -83t-142.5 -30.5q-82 0 -149.5 31.5t-116 87t-75 132.5t-26.5 167z M199 244q0 -47 18.5 -90t49 -75t72.5 -51.5t89 -19.5q43 0 83 18.5t68.5 49t46 71.5t17.5 86t-17.5 87t-47 75t-69.5 51.5t-87 18.5t-88 -17.5t-71 -47t-47 -69.5t-17 -87z" />
<glyph unicode="7" horiz-adv-x="854" d="M55 662v153h199q145 0 532 -6l48 -104q-129 -154 -213 -270t-132 -208q-137 -266 -137 -571h-147q0 137 20.5 257t67.5 238.5t127 243.5t201 273z" />
<glyph unicode="8" horiz-adv-x="944" d="M47 233q0 74 20.5 141.5t57.5 124t91 97.5t122 63q-229 80 -229 269q0 74 34.5 137t92 109.5t130 73t148.5 26.5q74 0 133.5 -25.5t102.5 -70.5t66.5 -107.5t23.5 -136.5q0 -197 -195 -250q260 -88 260 -367q0 -100 -34.5 -181t-95 -137t-143.5 -87t-177 -31 q-84 0 -158 24.5t-129 71t-88 111t-33 145.5zM207 242q0 -98 68.5 -154.5t173.5 -56.5q66 0 124 22.5t102 63.5t69.5 96t25.5 123q0 45 -22.5 91t-58.5 81t-82 57.5t-93 22.5q-61 0 -116.5 -32t-98.5 -82t-67.5 -111.5t-24.5 -120.5zM250 942q0 -86 59.5 -135t149.5 -49 q45 0 88 14t76.5 40t53 62.5t19.5 81.5q0 84 -50 130.5t-132 46.5q-47 0 -94 -14.5t-85 -40t-61.5 -60.5t-23.5 -76z" />
<glyph unicode="9" horiz-adv-x="829" d="M55 625q0 76 29 143.5t79 118.5t116.5 81.5t142.5 30.5q80 0 146.5 -31.5t114.5 -88t75.5 -133t27.5 -164.5q0 -487 -417 -899l-107 110q160 164 252 314.5t121 289.5q-94 -143 -221 -143q-74 0 -139.5 29.5t-114.5 80t-77 118t-28 143.5zM195 633q0 -49 17 -91t47 -74 t71 -50.5t88 -18.5t87 17.5t69.5 47.5t47 71t17.5 88q0 45 -17.5 87t-48 74.5t-72.5 52t-89 19.5q-45 0 -84 -18.5t-69 -50t-47 -71.5t-17 -83z" />
<glyph unicode=":" horiz-adv-x="462" d="M84 113q0 68 41 111.5t108 43.5q68 0 109 -43.5t41 -111.5q0 -63 -41 -113.5t-106 -50.5q-70 0 -111 44t-41 120zM84 627q0 66 41 110.5t108 44.5q68 0 109 -44.5t41 -110.5q0 -63 -41 -113.5t-106 -50.5q-70 0 -111 46t-41 118z" />
<glyph unicode=";" horiz-adv-x="473" d="M84 98q0 70 42 120t107 50q78 0 115 -47t37 -119q0 -209 -266 -325l-29 96q80 6 133 80q-139 18 -139 145zM104 627q0 66 40 110.5t110 44.5q66 0 107.5 -44.5t41.5 -110.5q0 -63 -40.5 -113.5t-106.5 -50.5q-72 0 -112 46t-40 118z" />
<glyph unicode="&#x3c;" horiz-adv-x="796" d="M68 575l616 457l86 -127q-131 -111 -252 -190.5t-239 -132.5q203 -104 450 -334l-92 -107z" />
<glyph unicode="=" horiz-adv-x="827" d="M98 657v154h631v-154h-631zM117 315v154h631v-154h-631z" />
<glyph unicode="&#x3e;" horiz-adv-x="776" d="M76 905l88 127l614 -457l-571 -434l-90 107q233 227 448 334q-115 53 -237.5 133t-251.5 190z" />
<glyph unicode="?" horiz-adv-x="784" d="M63 1067q117 324 361 324q70 0 130 -17.5t104 -49.5t69 -78t25 -103q0 -59 -22.5 -116.5t-62.5 -106t-92.5 -83t-109.5 -49.5q-76 -20 -111 -67t-35 -115q0 -100 87 -176l-99 -96q-117 113 -117 266q0 221 232 299q76 25 127 83t51 136q0 133 -172 133q-117 0 -162 -69 q-14 -25 -59 -170zM184 113q0 68 41 111.5t111 43.5q66 0 106.5 -43.5t40.5 -111.5q0 -63 -42 -113.5t-103 -50.5q-72 0 -113 44t-41 120z" />
<glyph unicode="@" horiz-adv-x="1413" d="M41 575q0 150 58.5 294.5t158.5 256t233.5 180t282.5 68.5q129 0 238.5 -37t189.5 -104.5t126 -161.5t46 -209q0 -92 -26.5 -189.5t-72.5 -177t-109.5 -130t-139.5 -50.5q-78 0 -132 55.5t-77 133.5q-41 -82 -109.5 -136.5t-150.5 -54.5q-117 0 -177.5 63.5t-60.5 180.5 q0 76 29 155t75 143.5t106.5 104t125.5 39.5q63 0 103 -22l18 88l150 -35q-39 -135 -39 -309q0 -258 127 -258q51 0 91 32.5t67.5 86t42 123t14.5 141.5q0 94 -33 166.5t-92.5 122t-143 75t-186.5 25.5q-129 0 -237.5 -55.5t-186.5 -153.5t-122 -232.5t-44 -293.5 q0 -160 96.5 -248t260.5 -88q176 0 340 102l73 -123q-188 -133 -397 -133q-115 0 -209 41t-162.5 115t-106.5 178.5t-38 230.5zM453 557q0 -102 104 -102q39 0 74 23.5t61.5 62.5t41 86t14.5 96q0 23 -6.5 47.5t-17.5 46t-27.5 34.5t-37.5 13q-35 0 -71.5 -32.5t-66 -81 t-49 -101.5t-19.5 -92z" />
<glyph unicode="A" horiz-adv-x="1402" d="M37 -18l141 -2q27 0 29 2q10 37 35.5 106.5t59.5 156.5t73 183t75.5 185t69.5 164t55 118q35 82 71 149.5t69 126.5q-35 4 -117 6.5t-213 2.5v151q20 0 66.5 -2t97.5 -4t97 -4t69 -1q111 0 157 11l197 -626q53 -180 94 -338t70 -299q66 6 128 8t122 2v-148h-580v152 q41 0 87 -3t97 -13q-16 82 -32.5 164.5t-38.5 166.5q-39 -10 -88 -15t-109 -5q-18 0 -59 1t-86 2t-85 2t-59 1q-33 -68 -72.5 -170t-92.5 -244q78 -4 170 -7t202 -3v-147q-47 0 -145 1t-205.5 3t-205 3t-144.5 1v162zM596 539q8 0 37 -1t63.5 -3.5t69.5 -3.5t53 -1 q45 0 84 4.5t78 12.5q-8 31 -21.5 80t-31 107.5t-37 118.5t-35.5 115.5t-27.5 99.5t-15.5 67q-10 -51 -43 -138.5t-68.5 -178.5t-66.5 -169t-39 -110z" />
<glyph unicode="B" horiz-adv-x="1189" d="M55 1348q100 12 192.5 18t184.5 6q518 0 518 -201q0 -49 -23.5 -97t-62.5 -91t-91 -78t-107 -59q18 8 41.5 10t48.5 2q80 0 146.5 -30.5t114.5 -84t74.5 -127t26.5 -159.5q0 -133 -56 -240.5t-153.5 -182.5t-230.5 -116t-287 -41q-115 0 -233 19l22 143l103 -14 q6 395 6 575q0 176 -4 330.5t-11 292.5l-200 -29zM428 594q0 -16 2 -154.5t8 -421.5q115 6 213.5 37t170 80t112.5 112.5t41 135.5q0 174 -76 269.5t-211 95.5q-119 0 -260 -80v-74zM428 1243q2 -16 2 -34.5v-39.5v-342q68 35 128 76t107.5 84t75 85t27.5 77q0 98 -227 98 q-29 0 -55.5 -1t-57.5 -3z" />
<glyph unicode="C" horiz-adv-x="1245" d="M68 584q0 154 46 298t125.5 255.5t187.5 180t232 68.5q121 0 244 -67l-2 111h156q-2 -2 -2 -35v-43q0 -10 -2 -17.5t-2 -29.5v-66q0 -39 2 -74t6 -67l-137 -21q-10 78 -65.5 117t-147.5 39q-115 0 -206 -50t-155.5 -135t-99.5 -194t-35 -225q0 -127 39 -235.5 t107.5 -188.5t163.5 -126t206 -46q219 0 412 176l104 -113q-117 -111 -224.5 -164t-203.5 -53q-170 0 -308 47t-236.5 138.5t-151.5 222.5t-53 297z" />
<glyph unicode="D" horiz-adv-x="1280" d="M66 -59l38 147l144 -41q16 104 24.5 226t8.5 264q0 37 -1 98t-3.5 133t-4.5 148.5t-4 146.5t-3 124t-1 83l-133 -6v153q27 0 84 2t120.5 5t123 6.5t92.5 3.5q328 0 495.5 -163t167.5 -495q0 -186 -62 -348t-172 -281.5t-260.5 -188.5t-328.5 -69q-158 0 -325 52zM395 23 q119 6 241 65t218 152.5t157.5 211t61.5 238.5q0 172 -28.5 289t-95 187.5t-174 100t-265.5 29.5h-68q-23 0 -24 -2v-16q0 -55 2 -155.5t5 -209t5 -205t2 -143.5q0 -164 -8 -295t-29 -247z" />
<glyph unicode="E" horiz-adv-x="1077" d="M51 96q70 10 124 13.5t95 5.5v51q0 53 1 136t3 180.5t5.5 203t5.5 203.5t3 181t1 138v47l-139 -12l-11 154q104 10 200.5 14t201.5 4q127 0 248.5 -6t242.5 -20q-10 -61 -15 -132t-5 -149h-144l-2 90q0 20 2 35.5t4 32.5q-117 6 -233 6q-47 0 -96 -1t-101 -3v-437 q68 4 117 5.5t86 1.5q0 55 3 102t7 88l154 -16q-4 -92 -6 -166t-2 -129q0 -109 6 -197l-154 -6q-6 74 -6 174l-205 -8l-16 -272q-8 -86 -10 -153t-2 -116v-26l186 -11q58 -4 104 -7q27 -2 51 -2q15 0 29 1q29 0 54.5 1t52.5 3q-10 76 -15.5 132.5t-5.5 97.5h144q0 -27 3 -78 t8 -108.5t8 -107.5t3 -75h-65q-37 0 -108.5 1t-147.5 2t-141.5 2t-92.5 1q-119 0 -221 -5t-192 -17z" />
<glyph unicode="F" horiz-adv-x="1155" d="M49 1415q119 14 263.5 20.5t320.5 6.5h201q49 0 95 -2t85 -2h56.5t47.5 2v-107q0 -86 5 -150.5t16 -111.5l-162 -24v106q0 72 -4 104.5t-25 32.5h-205q-104 0 -181 3t-136 3l4 -448h248v209h153v-576h-153v217h-238v-551h19q23 0 63.5 -1t85.5 -3t84 -3t56 -1v-147 q-193 0 -345.5 -5t-277.5 -18l-14 154l174 16q0 53 2 149.5t5 201t6 196.5t3 137q0 135 -8 249t-25 218l-192 -26z" />
<glyph unicode="G" horiz-adv-x="1429" d="M68 659q0 150 39.5 289t108.5 248t162 174.5t200 65.5q158 0 321 -138l23 166l151 -24q-14 -102 -22.5 -158.5t-12.5 -90.5t-5 -60.5t-1 -69.5h-139q-2 49 -25.5 88t-61.5 66.5t-88 42t-106 14.5q-92 0 -164.5 -38t-123 -103.5t-78 -157.5t-27.5 -199q0 -133 37 -259 t101.5 -223t149.5 -155.5t183 -58.5q229 0 363 328l4 -3l-2 230q-66 -10 -142.5 -15.5t-169.5 -5.5v156q131 0 291 19.5t369 58.5l27 -141l-222 -43q0 -35 -3 -111t-6 -160t-6 -159.5t-3 -110.5q0 -33 1 -63.5t3 -59.5h135v-154l-285 4q2 121 7.5 211.5t15.5 151.5 q-25 -59 -64.5 -108.5t-89 -83t-104.5 -52t-111 -18.5q-147 0 -264 51t-197.5 144.5t-124.5 224.5t-44 290z" />
<glyph unicode="H" horiz-adv-x="1388" d="M76 41q10 0 73.5 3t188.5 7q-4 86 -6 170t-2 170q0 199 11 401.5t34 426.5q-2 -2 -17 -2h-43q-104 0 -233 24l31 152q82 -16 185 -24.5t226 -8.5q-10 -94 -19 -232.5t-26 -335.5q84 2 211 8.5t303 18.5q12 125 17.5 256t7.5 285q39 0 116.5 4t196.5 14l10 -139l-185 -14 v-47q0 -86 -4.5 -202t-13 -241t-16.5 -245.5t-16 -217t-13.5 -154t-5.5 -55.5q53 6 113 11.5t129 5.5v-148q-106 0 -389 -30q0 160 10.5 350t32.5 430q-51 -20 -113.5 -22.5t-140.5 -6.5l-252 -14v-125q0 -12 -2 -26.5t-2 -24.5v-125q0 -133 8 -240.5t23 -193.5l-66 2 q-29 0 -83 -1t-111.5 -4t-104.5 -4t-63 -1v145z" />
<glyph unicode="I" horiz-adv-x="667" d="M59 57l64 2q23 0 48.5 -4t53.5 -2h15q12 203 23 503t24 714q-51 -10 -104.5 -15.5t-112.5 -5.5v158h553v-137q-45 0 -90.5 2t-90.5 6q-2 -61 -6 -162.5t-9 -223.5t-10 -252t-10 -247t-8.5 -212t-5.5 -144q2 -2 29 -2h151v-154q-51 2 -112.5 3t-143.5 5l-258 15v153z" />
<glyph unicode="J" horiz-adv-x="964" d="M33 211q0 180 71 338l138 -57q-66 -156 -66 -285q0 -178 162 -178q307 0 307 688q0 31 -3 97.5t-6 140t-5 141t-2 98.5v63q0 18 2 21l-211 20l22 152q92 -16 224.5 -22.5t306.5 -6.5v-141h-189q-2 -29 -3 -58.5t-1 -66.5q0 -31 1 -93.5t3 -131t3 -130t1 -91.5 q0 -223 -27.5 -380t-82.5 -256.5t-140 -144.5t-200 -45q-305 0 -305 328z" />
<glyph unicode="K" horiz-adv-x="1386" d="M53 -59v153h195q0 10 -1 16.5t-1 12.5v94q0 33 1 88t4 122t5 139.5t5 139t4 121t1 84.5q0 104 -5 191.5t-17 167.5l-181 4v156q25 0 81.5 -2.5t119 -4.5t120.5 -4t87 -2q41 0 78 1t72 3l14 -151q-23 -2 -41.5 -3t-38.5 -1q-80 0 -154 12q10 -53 13.5 -110.5t3.5 -123.5 q0 -55 -4 -136t-15 -191l619 567q-14 -4 -48 -7t-73 -6t-77 -5t-60 -2v153h88q0 -4 487 -12q-55 -57 -210.5 -205.5t-422.5 -402.5q106 -12 168 -203l103 -354q70 -184 205 -185q57 0 57 99q0 10 -1 17t-1 17h149q0 -131 -51 -210.5t-143 -79.5q-176 0 -279 200 q-20 51 -53 136t-86 237q-74 199 -176 199q-20 0 -23 -2l-188 -183q-2 -2 -2 -22v-62q0 -25 2 -101.5t10 -205.5q39 -12 105 -12h106l-14 -143q-43 4 -88 6t-99 2q-25 0 -74.5 -1t-104 -2t-102.5 -2t-69 -1z" />
<glyph unicode="L" horiz-adv-x="1116" d="M55 113q25 -6 66 -7q6 0 22.5 1.5t37 2.5t43 2t38.5 1h19v47q0 66 -2.5 160t-6.5 200.5t-7 218t-7 211t-6 179t-2 122.5h-33h-68.5t-72.5 4l8 154q29 -2 59.5 -3t63.5 -1q29 0 88 2t123.5 4t124 4t90.5 2v-153q-41 0 -99.5 -2t-130.5 -7q0 -49 1.5 -141t2.5 -204.5 t3 -235.5t4 -234.5t4 -198.5t4 -128q86 6 210 15t294 19q-12 59 -17.5 121t-5.5 131h144q0 -35 3 -83t8 -101t13.5 -109.5t18.5 -107.5q-90 6 -185 6q-35 0 -93 -3t-131 -7t-152.5 -10.5t-155.5 -10.5t-140.5 -7t-105.5 -3h-59z" />
<glyph unicode="M" horiz-adv-x="1648" d="M59 -55v143l258 25q-10 315 -15 489t-5 221q0 121 5 227.5t15 200.5q-20 -4 -43.5 -6t-52.5 -2q-20 0 -41.5 3t-62.5 3h-49v156h407q57 -170 141 -413.5t193 -583.5q4 16 184 514q139 387 140 469l454 -43l-18 -154q-27 4 -99.5 13.5t-197.5 31.5l2 -1145q55 10 129 13.5 t166 3.5h45l35 -150q-29 -8 -97.5 -13t-148.5 -9.5t-157 -10.5t-118 -16l5 1032q-25 -53 -58 -139t-66.5 -184.5t-67.5 -200t-61.5 -188.5t-48 -150.5t-28.5 -81.5h-70q-14 92 -44 212t-67.5 252t-79.5 268t-81 265v-116q0 -111 -1 -247t-3 -266t-3 -239t-1 -160 q-27 0 -82.5 -4t-115.5 -8t-115.5 -8t-80.5 -4z" />
<glyph unicode="N" horiz-adv-x="1525" d="M29 66q29 4 54.5 6t51.5 2q76 0 158 -17q0 53 2 137.5t4 182.5t6 203.5t6 201t4 173t2 120.5v176q-33 2 -77.5 4t-126.5 2v140q16 0 30.5 -1t28.5 -1q68 0 138.5 4t148.5 8q88 -180 155.5 -314.5t122 -236.5t98.5 -180t85 -145.5t82.5 -130t93.5 -136.5q4 88 6 170t2 172 q0 227 -11.5 419t-37.5 378q27 -2 90 -8t136 -12.5t140.5 -11.5t104.5 -5v-152q-127 0 -301 31v-1286h-138q-55 113 -134 252t-183 307q-164 264 -241.5 397.5t-86.5 149.5q-10 -98 -15 -202.5t-5 -221.5v-346q2 -23 2 -44.5v-41.5v-297q-16 0 -55 3t-83 6t-85 6t-62 3 q-51 0 -90 -8z" />
<glyph unicode="O" horiz-adv-x="1427" d="M55 684q0 152 51.5 283t140.5 228t212 153.5t268 56.5q147 0 267 -60.5t205 -167t131 -252t46 -315.5q0 -147 -46 -270t-128 -211t-197.5 -137t-252.5 -49q-152 0 -279 56t-220 154.5t-145.5 234.5t-52.5 296zM201 705q0 -127 40 -237t112.5 -192.5t172 -130t217.5 -47.5 q111 0 201 40t152.5 112t96.5 170t34 215q0 137 -38 250.5t-106.5 195.5t-163 128t-206.5 46q-109 0 -202 -40.5t-162.5 -113.5t-108.5 -174.5t-39 -221.5z" />
<glyph unicode="P" horiz-adv-x="1058" d="M61 -70v154h181v149q0 311 -5.5 556t-15.5 450h-149v152q20 0 72.5 2t110.5 5t112.5 5t83.5 2q129 0 235.5 -28.5t181 -82t115.5 -128.5t41 -167q0 -98 -43 -181t-113.5 -144.5t-163 -96t-192.5 -34.5q-84 0 -135 12q10 -152 18 -465l254 4v-153q-27 0 -73 -1t-103 -2 t-119.5 -2.5t-119 -2.5t-102.5 -2t-71 -1zM358 955.5q0 -44.5 1 -83t3.5 -76.5t4.5 -83q27 -6 57.5 -10.5t67.5 -4.5q86 0 157.5 20.5t123.5 57.5t81 89t29 118q0 266 -402 266h-96q-8 0 -13 -17.5t-8.5 -45t-4.5 -61t-1 -66.5v-103.5z" />
<glyph unicode="Q" horiz-adv-x="1419" d="M49 684q0 154 49 286t135 229t202 151.5t249 54.5q145 0 269 -62.5t215.5 -168t142.5 -247t51 -296.5q0 -346 -213 -549q37 -305 135 -305q29 0 55.5 28.5t48 77.5t36 111.5t20.5 130.5l151 -14q-10 -100 -38.5 -190.5t-71.5 -158t-97.5 -106.5t-115.5 -39 q-104 0 -173 101.5t-91 265.5q-84 -41 -165 -61.5t-165 -20.5q-139 0 -255 62.5t-199 170t-129 249.5t-46 300zM201 674q0 -123 36.5 -235.5t103.5 -197.5t157 -135.5t196 -50.5q152 0 291 95q-14 117 -55 188.5t-84 71.5q-66 0 -119 -158l-145 57q90 238 266 238 q47 0 89 -20.5t78 -57.5t61.5 -86t37.5 -104q96 149 96 360q0 158 -54 274.5t-136 194.5t-180.5 117t-186.5 39q-100 0 -183 -45t-143.5 -125t-93 -187.5t-32.5 -232.5z" />
<glyph unicode="R" horiz-adv-x="1288" d="M53 -23v154h41q55 0 139 -6q10 86 14.5 206t4.5 290v143q0 170 6 294t16 216q-31 -6 -76.5 -15.5t-107.5 -19.5l-22 154q104 16 196 21t178 5q172 0 311.5 -27.5t238 -78.5t152.5 -124t54 -161q0 -78 -40 -146.5t-108.5 -121.5t-159.5 -91t-192 -55q66 -14 119 -151 l82 -240q20 -59 41 -90t57 -31q121 0 121 242q0 23 -1 58.5t-1 48.5h148v-74q0 -223 -60.5 -323.5t-206.5 -100.5q-147 0 -221 170l-98 311q-74 170 -225 170h-23q-16 0 -18 -2q0 -274 -24 -491q37 -4 87.5 -10.5t122.5 -16.5l-25 -137q-104 20 -260 24zM401 1032 q0 -23 2.5 -61.5t3.5 -79.5t3 -74t2 -43q88 -16 161 -16q98 0 183.5 21.5t148 59.5t98 88t35.5 107t-36.5 102.5t-102 78t-154 50t-192.5 17.5q-59 0 -123 -6q-29 -80 -29 -244z" />
<glyph unicode="S" horiz-adv-x="1089" d="M59 410l134 59q39 -180 141 -279.5t250 -99.5q61 0 118.5 19.5t100.5 55.5t69.5 84t26.5 103q0 137 -186 238l-344 176q-188 123 -189 311q0 68 28 125.5t76 99t114.5 66.5t144.5 25q145 0 239 -82l-16 166h154q0 -25 2 -82.5t3 -123t3 -125t2 -87.5h-154 q0 90 -62.5 146.5t-164.5 56.5q-92 0 -156.5 -51.5t-64.5 -133.5q0 -68 50 -124t127 -104t171 -92t184 -89q189 -128 189 -316q0 -88 -38 -162.5t-102.5 -130t-149.5 -86t-181 -30.5q-100 0 -187.5 32.5t-155 94t-112.5 147.5t-64 193z" />
<glyph unicode="T" horiz-adv-x="1243" d="M51 913q10 66 14.5 175.5t4.5 273.5q35 4 114.5 7t184 7t224.5 10t235.5 12.5t215 14.5t164.5 19v-547h-145v309v34.5t-2 41.5q-66 -2 -166 -5t-236 -14v-24q0 -268 10.5 -541.5t32.5 -583.5q49 4 102.5 7.5t113.5 3.5v-142q-27 0 -82.5 -1t-118 -3t-119.5 -3t-86 -1 q-55 0 -106.5 2t-96.5 6l35 150q12 -2 40 -3t59.5 -3t62.5 -4t51 -5q-27 446 -39 731t-12 418l-297 -16q4 -41 6 -79t3 -77q0 -51 -3.5 -99t-11.5 -93z" />
<glyph unicode="U" horiz-adv-x="1306" d="M45 1286v154q29 0 95.5 3t141 6t140 6t94.5 3v-139l-147 -4q-2 -35 -7.5 -111t-10.5 -163t-9 -167.5t-4 -123.5q0 -670 360 -670q315 0 316 694q0 33 -3 105.5t-6.5 154.5t-6.5 158t-3 113l-207 6v153q33 0 103 -4t145.5 -9t144 -10t103.5 -7v-138h-139v-65q0 -43 3 -117 t6 -151.5t6 -146t3 -101.5q0 -397 -110.5 -593t-354.5 -196q-260 0 -381.5 204t-121.5 642q0 43 2 108.5t6 151.5l12 260z" />
<glyph unicode="V" horiz-adv-x="1333" d="M31 1264v153q14 0 51 1t80 2t83 2t62 1q184 0 295 -39l-41 -133q-70 29 -143 29h-23q-20 0 -22 -2q92 -342 145 -630t76 -554q78 406 162 705t182 522l-213 4l4 154q98 -4 243.5 -10.5t348.5 -10.5l-4 -143l-207 4q-51 -88 -97 -194.5t-81 -231.5q-4 -14 -18.5 -70.5 t-35 -137.5t-45 -177t-51 -190.5t-52 -178.5t-46.5 -139h-184q-49 256 -81 410.5t-48 226.5q-37 174 -75 330.5t-79 300.5z" />
<glyph unicode="W" horiz-adv-x="1689" d="M16 1286v154h119q104 0 184 7t150 28l35 -138l-172 -39q72 -293 119 -560t75 -533q31 281 105 566.5t188 600.5h68q4 -141 17.5 -297.5t35.5 -349.5q4 -37 28 -193l66 -450l14 62q14 64 37 168t49.5 236t50 266t41 259t21.5 215l-198 -2v154q25 0 75 1t111 2t128 3t128 3 t110.5 2t73.5 1v-154l-284 -4q-10 -160 -35 -330.5t-66 -363.5q-20 -86 -63 -252t-115 -428h-141q-41 111 -65.5 237t-47.5 279q-10 59 -21.5 187.5t-33.5 337.5l-98 -500q-31 -147 -64 -267t-72 -225h-116q-20 66 -45 175.5t-50.5 239.5t-52 268.5t-50.5 263t-44.5 224 t-32.5 148.5z" />
<glyph unicode="X" horiz-adv-x="1343" d="M37 -8l4 153l149 -6q43 53 93.5 133t103.5 174.5t107.5 195.5t105.5 200q-182 362 -324 456l-170 -20l-14 156q117 12 254 18t307 6v-139q-59 0 -102 -1t-74 -3q25 -31 51.5 -74t52 -91t51 -98.5t50.5 -95.5q18 20 50 70.5t67 106t66.5 104.5t49.5 72q-37 2 -70.5 5 t-70.5 7l21 154q63 -8 122.5 -12.5t118.5 -4.5q86 0 156 5t123 18l28 -138q-55 -10 -109 -17t-108 -11q-111 -104 -208 -219t-179 -250q119 -246 205 -427t141 -317h246v-147h-207q-131 0 -238.5 5t-193.5 11l17 154l206 -16q-39 104 -103 252.5t-150 355.5q-10 -20 -46 -96 t-81.5 -169.5t-90.5 -183.5t-75 -142l123 -3l-5 -146q-72 2 -184.5 5.5t-265.5 9.5z" />
<glyph unicode="Y" horiz-adv-x="1404" d="M25 1239v152q375 0 542 34l27 -145q-49 -10 -96 -17.5t-95 -11.5q27 -31 71 -97.5t91 -138t91 -137t71 -96.5q27 45 95.5 170t176.5 344q-47 4 -100 12.5t-108 18.5l28 152q84 -18 149.5 -26.5t116.5 -8.5q41 0 113 11t170 34l37 -143q-39 -12 -96.5 -24.5t-139.5 -29.5 q-27 -51 -72.5 -129t-113.5 -194q-61 -92 -100 -172t-62.5 -156t-32 -155.5t-8.5 -172.5q0 -47 2 -97t6 -110q0 2 25 3h25q41 0 88 -6.5t100 -16.5l-27 -141q-29 6 -63.5 10t-73.5 4q-31 0 -89 -4t-122.5 -10t-122 -10.5t-84.5 -4.5v152q123 0 191 6q-4 66 -8 124t-4 114 q0 88 7 170t19 157q-121 199 -228.5 344.5t-211.5 249.5z" />
<glyph unicode="Z" horiz-adv-x="1130" d="M41 1350q45 0 126 2t180 5t207 7t207 7t180 5t126 2l23 -137q-207 -223 -408 -486t-408 -591q47 4 97.5 6t103.5 2q88 0 192.5 -4t235.5 -21q-4 43 -14 109t-27 154l148 34q2 -4 13 -63t27.5 -138t35 -161t34.5 -133q-285 67 -573 67h-8q-242 0 -433 -49l-24 125 q190 346 388 624.5t419 506.5q-61 -10 -131 -12.5t-156 -2.5q-33 0 -70.5 1t-78.5 1l-220 -2q4 -20 4.5 -36.5t0.5 -38.5q0 -16 -4.5 -67.5t-14.5 -145.5l-137 10q4 29 7 58.5t3 60.5q0 172 -51 301z" />
<glyph unicode="[" horiz-adv-x="696" d="M139 1374h51h109q96 0 164.5 5t114.5 18l34 -150q-47 -10 -129 -18t-202 -12q0 -4 5 -68t13 -163t17.5 -225t17.5 -256t13 -253t5 -219q47 -2 92 -3t88 -1q45 0 85 1t79 3v-176q-252 25 -495 24q0 66 -4 183.5t-11.5 261t-15.5 300t-15.5 301t-11.5 262.5t-4 185z" />
<glyph unicode="\" horiz-adv-x="819" d="M16 1315l129 80q168 -254 333 -605.5t341 -816.5l-143 -55q-324 870 -660 1397z" />
<glyph unicode="]" horiz-adv-x="684" d="M33 1262l20 151l553 -53q-102 -186 -102 -844q0 -223 10 -384t31 -271q-35 0 -105.5 -4t-149.5 -9.5t-149.5 -9.5t-105.5 -4v148q45 0 130 5t212 15q-16 119 -23.5 242t-7.5 264q0 180 13.5 359.5t37.5 371.5q-59 2 -149 7t-215 16z" />
<glyph unicode="^" horiz-adv-x="935" d="M43 674q276 162 489 571q25 -74 71 -171t101.5 -198.5t116 -194.5t115.5 -161l-125 -61q-217 268 -293 545q-156 -319 -397 -463z" />
<glyph unicode="_" horiz-adv-x="1314" d="M-8 -195q55 0 159.5 1t232.5 3.5t268.5 3.5t268.5 3t232 3t162 1v-158q-57 0 -161.5 -1t-230.5 -2t-265.5 -2t-267.5 -2t-233.5 -2t-164.5 -1v153z" />
<glyph unicode="`" horiz-adv-x="524" d="M59 1405l134 104q68 -113 129 -202.5t145 -173.5l-88 -82q-47 43 -88 81.5t-79 80.5t-75 89.5t-78 102.5z" />
<glyph unicode="a" d="M37 236q0 147 141 223l262 100q141 51 142 146q0 63 -38 100t-100 37q-80 0 -134 -52.5t-54 -130.5v-18q0 -12 2 -14l-156 -13v31q0 66 32 124t83 103.5t115.5 71t130.5 25.5q270 0 270 -400q0 -20 -2 -60t-3 -84t-3 -83t-2 -57t5 -56.5t16.5 -76t26.5 -66.5t34 -29 q37 0 49 142h123q0 -49 -11.5 -98.5t-35 -87.5t-56 -62.5t-75.5 -24.5q-59 0 -107.5 47t-60.5 129q-66 -170 -236 -170q-66 0 -130 25t-115.5 65.5t-82 96t-30.5 117.5zM188 229q0 -31 17.5 -57.5t46.5 -46t67.5 -31.5t81.5 -12q88 0 134.5 58.5t56.5 203.5l4 186 q-12 -41 -123 -92q-176 -84 -186 -90q-98 -59 -99 -119z" />
<glyph unicode="b" horiz-adv-x="1036" d="M23 -63v149q12 0 37.5 -3t54 -6t55.5 -6t39 -3l14 2v116q0 344 20.5 594t65.5 430q-2 -2 -18 -2h-21q-23 0 -62.5 6.5t-98.5 22.5l32 149q97 -30 224 -30h8q29 0 58.5 1t60.5 3q-20 -111 -43 -269.5t-54 -381.5q126 157 267 157h2q76 0 139 -44t110.5 -116.5t74 -167 t26.5 -194.5q0 -92 -30 -175t-82 -144.5t-122.5 -97.5t-154.5 -36q-98 0 -168 52.5t-88 144.5v-164h-17q-25 0 -72 2t-97 4t-95 4.5t-65 2.5zM379 422q0 -385 194 -385q147 0 224 93t77 267q0 66 -18 124.5t-51 102.5t-79 69.5t-103 25.5q-135 0 -189.5 -67.5t-54.5 -229.5z " />
<glyph unicode="c" horiz-adv-x="909" d="M37 432q0 119 32.5 220.5t94 173t147.5 112.5t191 41q76 0 140.5 -18.5t110.5 -50t71.5 -75.5t25.5 -96q0 -70 -41 -114.5t-111 -44.5q-66 0 -107.5 48t-41.5 113q0 68 51 99q-29 4 -53.5 6t-46.5 2q-74 0 -132.5 -27.5t-99.5 -77t-63.5 -116t-22.5 -144.5 q0 -72 23.5 -143.5t63.5 -128.5t95.5 -93t116.5 -36q37 0 74 11t70.5 30.5t60.5 46.5t41 59l156 -49q-25 -45 -66 -88t-93 -76.5t-111.5 -54t-120.5 -20.5q-96 0 -179.5 39.5t-145 107.5t-96 157t-34.5 187z" />
<glyph unicode="d" horiz-adv-x="1069" d="M37 383q0 92 28.5 181t79 158t120 110.5t149.5 41.5q90 0 164.5 -61t103.5 -156q10 92 14 221.5t4 303.5v26q-59 2 -113.5 6.5t-103.5 14.5l25 151q88 -16 311 -16h66q-104 -594 -105 -1065q0 -211 78 -211q66 0 96 100l123 -65q-6 -35 -23.5 -66.5t-44 -56.5t-58 -39 t-66.5 -14q-119 0 -189 166q-10 -25 -41.5 -53.5t-74.5 -54t-89.5 -42t-80.5 -16.5q-84 0 -153 32.5t-118 90t-75.5 137.5t-26.5 176zM193 399q0 -68 20 -123t56 -95t84 -61.5t106 -21.5q31 0 63.5 17.5t59 44t45 58.5t22.5 61q10 78 12.5 116.5t2.5 42.5q0 51 -21.5 103.5 t-57.5 95.5t-83 69.5t-99 26.5q-43 0 -80.5 -29.5t-67.5 -77.5t-46 -107.5t-16 -119.5z" />
<glyph unicode="e" horiz-adv-x="913" d="M70 492q0 94 34.5 181t94 154.5t141.5 107.5t176 40q74 0 137.5 -27.5t112.5 -78t82 -121t43 -154.5l-649 -223q12 -49 40.5 -95.5t67.5 -81t86 -55t96 -20.5q125 0 205 129l127 -47q-119 -223 -329 -224q-92 0 -176.5 43t-149 115t-102 165t-37.5 192zM213 473l258 94 q78 29 141.5 45.5t118.5 32.5q-6 84 -71.5 137.5t-153.5 53.5q-119 0 -196 -93.5t-97 -269.5z" />
<glyph unicode="f" horiz-adv-x="722" d="M61 94l187 17l-17 600h-133v153l129 -2q-4 31 -6 57.5t-2 55.5q0 446 373 446q190 0 190 -164q0 -66 -40 -109.5t-105 -43.5q-59 0 -103.5 39t-44.5 96q0 39 15 59q-37 -6 -63.5 -32.5t-45 -68.5t-28 -95t-9.5 -111q0 -82 13 -131q131 -6 192 -6q16 0 27.5 1t17.5 1v-139 h-168h-28.5t-30.5 -4l33 -602h178v-142q-147 -4 -274.5 -10t-241.5 -18z" />
<glyph unicode="g" horiz-adv-x="862" d="M45 506q0 74 25.5 138.5t70.5 113.5t107.5 77.5t138.5 28.5q90 0 186 -30q35 29 75 81t91 129l111 -104q-113 -80 -160 -186q98 -92 98 -224q0 -250 -229 -313q88 -16 140.5 -75.5t52.5 -151.5q0 -78 -35 -144.5t-92.5 -113.5t-129 -74t-145.5 -27q-53 0 -101 14.5 t-85 40t-59.5 61.5t-22.5 77q0 82 74.5 128t201.5 46v-119q-10 8 -49 8q-35 0 -60.5 -18.5t-25.5 -38.5q0 -68 144 -68q49 0 95 18.5t82 49.5t57.5 72t21.5 88q0 127 -156 194q-16 -2 -29.5 -3t-29.5 -1q-76 0 -142.5 24.5t-116 67.5t-77 102.5t-27.5 131.5zM174 508 q0 -45 22.5 -82t59.5 -62.5t82 -40t92 -14.5q100 0 161.5 56.5t61.5 154.5q0 92 -71.5 146.5t-180.5 54.5q-98 0 -162.5 -57.5t-64.5 -155.5z" />
<glyph unicode="h" horiz-adv-x="1136" d="M41 98q66 10 123 14.5t112 6.5q0 31 2.5 89t4.5 132t6 153.5t6 153.5t4 134.5t2 95.5q0 109 -5 200.5t-20 173.5h-217v138h357q18 -172 18 -383v-90.5t-2 -100.5q29 49 68 89t82 70t85 46t76 16q111 0 175.5 -101t64.5 -282q0 -39 -9 -169t-30 -373q94 -4 138 -8.5 t46 -4.5l-24 -135q-31 2 -59.5 3t-61.5 1q-59 0 -108.5 -2t-86.5 -6q27 164 40.5 331t13.5 363q0 236 -133 236q-33 0 -73 -21.5t-80 -56.5t-75 -79t-55 -89q-4 -98 -7 -185t-3 -171q0 -20 1 -38t1 -38l2 -90h203v-137h-125q-131 0 -238.5 -5.5t-202.5 -15.5z" />
<glyph unicode="i" horiz-adv-x="655" d="M45 788v136h361q0 -135 3 -326.5t9 -458.5q18 0 35.5 1t35.5 1q39 0 77 -1t75 -3l12 -131q-137 -4 -279.5 -17.5t-285.5 -17.5v138q53 2 102.5 4t90.5 8q-4 227 -8.5 389t-6.5 278h-221zM104 1227q0 66 42 110.5t108 44.5t109 -44.5t43 -110.5t-42 -115t-108 -49 q-70 0 -111 44t-41 120z" />
<glyph unicode="j" horiz-adv-x="614" d="M-94 -225l112 80q20 -49 61.5 -83t88.5 -34q49 0 88 33.5t66.5 97t42 152t14.5 196.5q0 55 -4 119.5t-13 146.5l-26 265q-29 -2 -58.5 -3.5t-64.5 -1.5l-154 2v138h76q10 0 17.5 -2t27.5 -2h64q158 0 237 26q0 -39 5.5 -127t11.5 -187t11 -189.5t5 -135.5 q0 -667 -355 -667h-1q-135 0 -252 176zM160 1227q0 66 41 110.5t106 44.5q70 0 111 -44.5t41 -110.5q0 -70 -41 -114t-111 -44q-66 0 -106.5 44t-40.5 114z" />
<glyph unicode="k" horiz-adv-x="1105" d="M55 1208v138q20 0 70.5 2t105 5t103.5 5t69 2v-692l275 241q-49 6 -146 6v136h140q16 0 30.5 1t28.5 1q70 0 130.5 -6.5t113.5 -16.5q-14 -10 -51 -44t-87.5 -81t-108.5 -102t-116.5 -107.5t-112 -98.5t-91.5 -73q346 -131 698 -487l-96 -94q-123 119 -272.5 229.5 t-336.5 214.5q-18 -72 -18 -184v-99q0 -45 3 -76.5t3 -52.5q-90 25 -162.5 38.5t-128.5 13.5v139h33q63 0 121 -10q8 164 11 358.5t3 439.5v265q-53 -4 -105 -7.5t-106 -3.5z" />
<glyph unicode="l" horiz-adv-x="667" d="M49 98q66 10 124 14.5t112 6.5q0 29 1 88t4 132t5 154.5t5 158.5t4 140.5t1 100.5q0 111 -5 199t-15 159h-217v138h356q18 -176 18 -392q0 -41 -2 -111.5t-4 -154.5t-5 -175t-5 -174t-4 -152.5t-2 -109.5h211v-136q-199 0 -336 -5.5t-229 -15.5z" />
<glyph unicode="m" horiz-adv-x="1683" d="M37 799l16 135q88 -12 171 -18.5t175 -6.5q-18 -90 -18 -227q20 49 58 95t86 83t104.5 58.5t113.5 21.5q92 0 141.5 -67.5t49.5 -182.5q59 115 147 179.5t193 64.5q246 0 246 -332q0 -135 -31 -278l-57 -271q63 0 123.5 3t82.5 7q4 -8 4 -21v-30q0 -20 -1 -43t-5 -39 q-25 0 -77 -3t-110 -6t-110.5 -5t-76.5 -2l77 336q43 217 43 336q0 190 -143 190q-45 0 -91 -18.5t-86 -49t-68.5 -68.5t-39.5 -77q-8 -33 -17 -99.5t-18.5 -138t-19.5 -137t-18 -96.5q78 0 225 -55l-47 -129q-129 47 -232 47q-59 0 -84 -12q82 330 82 569q0 301 -135 301 q-51 0 -105.5 -36t-99.5 -88t-73.5 -111.5t-28.5 -104.5v-31q0 -35 2 -79t6 -101l10 -174h183l14 -145h-504l-10 147l180 -8q-10 270 -13 438t-3 254q-80 4 -211 25z" />
<glyph unicode="n" horiz-adv-x="1132" d="M55 844v139l101 -2h28q74 0 124 9q60 11 98 11q0 -12 2 -33.5t3 -46t3 -48t2 -42.5v-30q25 51 63.5 94t84.5 74.5t94.5 49t91.5 17.5q109 0 173 -101t64 -282q0 -39 -10 -169t-27 -373q92 -4 138.5 -8.5t44.5 -4.5l-25 -135q-31 2 -60.5 3t-62.5 1q-57 0 -105.5 -2 t-88.5 -6q29 164 42 331t13 363q0 236 -133 236q-49 0 -102.5 -33t-99.5 -82t-75.5 -105.5t-29.5 -103.5q0 -35 3 -100.5t7 -136t7 -131t3 -84.5q14 -2 56 -10.5t112 -24.5l-33 -135q-55 16 -168.5 22t-290.5 6v138l185 2q0 18 -1 78.5t-3 152.5t-3 210t-1 251v25.5t2 27.5 q-98 -6 -152.5 -9t-73.5 -3z" />
<glyph unicode="o" horiz-adv-x="989" d="M66 428q0 106 33.5 198.5t96 160t151.5 105.5t200 38q92 0 162.5 -36t120 -100.5t75 -154.5t25.5 -201t-30 -199.5t-85 -150t-133 -95.5t-176 -34q-102 0 -184 34t-138.5 96.5t-87 148.5t-30.5 190zM201 422q0 -68 20.5 -127t59 -103.5t92 -70t121.5 -25.5 q154 0 232.5 95.5t78.5 259.5q0 158 -78 247.5t-209 89.5q-72 0 -130 -27.5t-99 -76.5t-64.5 -116.5t-23.5 -145.5z" />
<glyph unicode="p" horiz-adv-x="944" d="M27 758v135q18 0 58 4t84 9t83 9.5t57 4.5v-142q80 182 238 183q82 0 147.5 -35t112.5 -93.5t72.5 -137.5t25.5 -167q0 -121 -27.5 -219t-80 -167.5t-125 -106.5t-160.5 -37q-135 0 -203 129v-471h-272v137h135v979q-45 -10 -81 -12t-64 -2zM309 254q76 -123 195 -123 q59 0 107 28.5t83 79t54.5 116t19.5 139.5q0 147 -63.5 233t-178.5 86q-47 0 -86 -19.5t-67.5 -51t-45 -74.5t-18.5 -93v-321z" />
<glyph unicode="q" horiz-adv-x="966" d="M53 532q0 102 33 182.5t85 134.5t116.5 83t126.5 29q154 0 237 -183v142q18 0 56 -4.5t82.5 -9.5t84 -9t60.5 -4v-135q-29 0 -66 2t-80 12q-2 -29 -3 -60.5t-1 -68.5q0 -47 2 -102.5t2 -112.5v-231q0 -23 -1 -68t-3 -95t-3 -96.5t-1 -68.5q0 -137 62 -137q33 0 47 75 l10 105l156 -25q-29 -162 -72 -228.5t-127 -66.5q-223 0 -223 265q0 25 18 270q-68 -129 -202 -129q-92 0 -166 38t-124 107.5t-78 169t-28 219.5zM193 494q0 -76 19 -142.5t54 -116t83 -77t108 -27.5q115 0 194 123v276q0 141 -60.5 212t-158.5 71q-115 0 -177 -86 t-62 -233z" />
<glyph unicode="r" horiz-adv-x="784" d="M35 803l18 135q78 -10 143.5 -15t125.5 -5l4 -121q10 31 36.5 57.5t61.5 46t77 30.5t85 11q190 0 190 -197q0 -76 -37 -121.5t-108 -45.5q-31 0 -60.5 11t-52 29.5t-37 44t-14.5 56.5q0 41 37 94q-35 -2 -65.5 -22.5t-53.5 -51t-36 -68.5t-13 -77q0 -59 6 -182t23 -316 q57 0 184 -6l-17 -151q-47 4 -107 6t-138 6l-244 12l8 135l168 -14q0 31 -2 85t-4 120.5t-5 140.5t-5 141.5t-4 123t-2 87.5z" />
<glyph unicode="s" horiz-adv-x="811" d="M33 244l135 28q10 -104 76.5 -163.5t171.5 -59.5q92 0 157.5 49t65.5 138q0 84 -139 114q-123 25 -186.5 38t-73.5 18q-141 57 -142 217q0 61 22.5 115.5t61.5 95t91.5 65.5t109.5 25q96 0 170 -78l-12 223h135q0 -18 -1 -53t-3 -74t-3 -72.5t-1 -50.5q0 -123 18 -180 l-92 -31q0 80 -51 127t-131 47q-72 0 -123 -32.5t-51 -110.5q0 -86 139 -117q117 -29 180.5 -44t79.5 -21q139 -66 139 -236q0 -66 -31.5 -122t-84 -96t-120 -62.5t-139.5 -22.5q-154 0 -250 86t-118 240z" />
<glyph unicode="t" horiz-adv-x="745" d="M23 836v153q23 0 38 1t31 1t28.5 -1t24.5 -1q4 117 6.5 220.5t2.5 201.5h153q0 -98 -3 -204.5t-11 -227.5q68 -8 135.5 -11t136.5 -3v-142q-86 0 -155.5 3t-124.5 8q-6 -147 -11.5 -232.5t-5.5 -107.5q0 -449 174 -449q59 0 97.5 47t38.5 109q0 35 -13.5 83t-42.5 107 l144 35q49 -135 49 -227q0 -61 -20.5 -117.5t-58.5 -99.5t-90 -69t-114 -26q-303 0 -303 627q0 -4 3 79t11 253q-16 0 -49 -5t-55 -5h-16z" />
<glyph unicode="u" horiz-adv-x="1091" d="M25 936q8 2 18 2h63q23 0 69 -1t98.5 -3t99.5 -3t69 -1v-154h-118q0 -33 -3.5 -96.5t-3.5 -167.5v-193q0 -92 60.5 -149t152.5 -57q184 0 185 399q0 18 -2 55t-3 79t-3 79t-2 55l-119 8l10 156q121 -16 223.5 -21t200.5 -5v-152h-135q-23 0 -25 2q-2 -4 -2 -41v-276 q0 -23 -4 -53.5t-4 -78.5v-92q0 -55 24.5 -98t53.5 -43q41 0 71 80l119 -25q-23 -100 -75 -154.5t-121 -54.5q-78 0 -121 62.5t-43 148.5q-18 -90 -87 -137t-167 -47q-74 0 -136.5 24.5t-106.5 67.5t-67.5 102.5t-23.5 131.5l2 501l-16 2q-25 0 -123 -6z" />
<glyph unicode="v" horiz-adv-x="1130" d="M2 893q70 4 132.5 7t127 5t134 3t153.5 1v-153q-25 -2 -42.5 -2h-23.5q-43 0 -86 6q6 -20 23.5 -66.5t42 -106t51.5 -128t51.5 -136t43 -127t26.5 -100.5q2 45 16.5 116t35 150.5t42 162.5t40.5 151.5t31.5 115t14.5 56.5q-10 0 -32.5 -1t-51.5 -2t-58.5 -2t-49.5 -3v153 q47 4 102 5t115 1q55 0 125.5 -1t156.5 -5v-153q-10 0 -21 -1t-24 -1q-25 0 -51.5 1t-54.5 3q-47 -147 -112.5 -365.5t-151.5 -511.5l-140 -20q-82 260 -163.5 456.5t-170.5 360.5q-35 -4 -91 -10.5t-128 -12.5z" />
<glyph unicode="w" horiz-adv-x="1419" d="M2 885l553 47l10 -154l-207 -20q31 -66 59.5 -143.5t51.5 -176.5q10 -41 26.5 -123t39.5 -209q33 219 76.5 413t99.5 374l110 -14q82 -193 131 -376.5t76 -369.5l41 346q12 104 26.5 187.5t37.5 152.5h-172v156q29 0 93 -3t136 -7t135.5 -7.5t91.5 -3.5v-137h-133 q-29 -88 -49.5 -195.5t-42.5 -242.5q-33 -203 -52.5 -308.5t-23.5 -133.5l-145 12q-39 143 -66.5 241.5t-47 165t-32 111.5t-21.5 84t-16.5 82t-15.5 104q-12 -84 -29.5 -181t-44.5 -212l-92 -389l-123 8q-66 238 -137.5 428.5t-152.5 353.5l-179 -16z" />
<glyph unicode="x" horiz-adv-x="1103" d="M10 49l133 19q92 129 169 214t134 152q-47 57 -117.5 125t-174.5 141l-93 -16l-24 154l469 43l8 -140l-158 -22q53 -53 95.5 -101.5t85.5 -95.5q57 53 123.5 107.5t140.5 120.5l-127 -9l8 144h412l-4 -144l-109 4q-117 -96 -204 -172.5t-163 -148.5q51 -63 105.5 -145 t126.5 -183l153 2l27 -137l-469 -20v153l115 -2q-41 72 -77 129.5t-77 108.5q-45 -55 -93 -112.5t-101 -127.5l118 8l17 -147l-420 -55z" />
<glyph unicode="y" horiz-adv-x="1089" d="M2 965q49 6 173 13t337 13l6 -155q-18 0 -36.5 1t-35.5 1q-27 0 -52 -1t-50 -3q12 -33 33.5 -84.5t48.5 -110.5t56.5 -122.5t57 -123t53 -108.5t42.5 -80q16 31 41.5 86t54.5 125.5t57.5 153.5t49.5 173l-146 7v153q33 0 105.5 -2t153.5 -3t154 -3t109 -2v-154l-213 2 q-92 -233 -161.5 -393t-128.5 -264q-127 -223 -244 -332.5t-236 -109.5q-66 0 -107.5 45t-41.5 110q0 70 43 114t108 44q55 0 91 -29.5t36 -81.5v-11t-2 -11q82 55 130.5 120.5t72.5 133.5q-55 98 -151.5 281.5t-231.5 469.5q-27 -2 -66.5 -6t-93.5 -8z" />
<glyph unicode="z" horiz-adv-x="911" d="M43 96l635 654l-438 -11v-239h-140l-30 364h802l-22 -139l-588 -598h438v156l136 26l26 -332h-811z" />
<glyph unicode="{" horiz-adv-x="712" d="M59 694v146q178 0 220 145l47 281q53 150 256 149q29 0 60.5 -3t68.5 -7l-23 -154q-39 8 -80 9q-123 0 -159 -95q-4 -10 -13.5 -58t-25.5 -146q-25 -139 -99 -205q147 -96 148 -230q0 -23 -10.5 -61.5t-23.5 -81.5t-23.5 -83t-10.5 -60q0 -121 322 -138l-11 -155 q-463 25 -462 268q0 25 9 69t19.5 93t19.5 95t9 71q0 147 -238 151z" />
<glyph unicode="|" horiz-adv-x="419" d="M133 1354h154q0 -61 2 -178t5 -259.5t6 -299t6 -300t5 -260t2 -178.5h-143q0 61 -3 177t-7 258.5t-8.5 298t-8.5 299t-7 260t-3 182.5z" />
<glyph unicode="}" horiz-adv-x="587" d="M59 1329q145 88 242 88q141 0 141 -274q0 -27 -2 -56.5t-2 -72.5v-49q0 -188 80 -189q6 0 13.5 1t17.5 3l39 -141q-164 -43 -164 -170q0 -29 10 -77t21.5 -97t21.5 -91t10 -59q0 -43 -16 -84t-44 -73.5t-68 -53t-85 -20.5q-14 0 -40.5 3t-55 6t-54.5 6t-36 5v152 q12 0 38 -3t54.5 -7t55 -7t38.5 -3q27 0 43.5 25.5t16.5 53.5q0 27 -10.5 75t-23.5 98.5t-23.5 91.5t-10.5 53q0 94 117 205q-88 80 -88 272q0 16 2 50t3 71t3 69.5t2 49.5q0 23 -1 40t-3 33q4 0 4 7q0 10 -35 10q-10 0 -41.5 -19.5t-91.5 -56.5z" />
<glyph unicode="~" horiz-adv-x="1095" d="M45 526q14 55 45 104.5t71 84.5t86 55.5t91 20.5q55 0 103 -27t97.5 -59.5t101.5 -59.5t118 -27q20 0 44.5 11.5t49.5 28t47.5 36t40.5 35.5l119 -96q-27 -31 -62.5 -59.5t-74.5 -50t-80 -34t-78 -12.5q-61 0 -113.5 29t-101.5 64.5t-96.5 64.5t-96.5 29 q-35 0 -64.5 -15.5t-54 -42t-41 -59.5t-24.5 -70z" />
<glyph unicode="&#xa1;" horiz-adv-x="425" d="M72 985q0 78 41 121t110 43q66 0 107 -49t41 -115t-42 -110t-108 -44t-107.5 44.5t-41.5 109.5zM158 729h139q0 -289 14.5 -536.5t40.5 -489.5l-135 -18q-29 240 -44 495.5t-15 548.5z" />
<glyph unicode="&#xa2;" horiz-adv-x="903" d="M31 647q0 109 27.5 202t78.5 163.5t123 116t162 59.5q-2 80 -2 144.5v105.5h86v-102.5t2 -141.5q74 -2 136.5 -21.5t107.5 -51t69.5 -74.5t24.5 -93q0 -70 -41 -114.5t-111 -44.5q-66 0 -107.5 47t-41.5 112q0 66 49 101q-23 4 -44.5 4t-41.5 2q2 -90 3 -187.5t3 -196.5 t3 -195.5t1 -182.5q66 10 122 49t81 94l158 -47q-25 -43 -63 -83t-85 -72.5t-101.5 -54t-109.5 -27.5q2 -59 2 -106.5v-80.5h-82v79t-2 108q-86 10 -160.5 53t-130 109.5t-86 150.5t-30.5 176zM176 698q0 -68 19.5 -134t55.5 -121.5t83 -93.5t102 -50l-12 756 q-117 -27 -182.5 -124.5t-65.5 -232.5z" />
<glyph unicode="&#xa3;" horiz-adv-x="1005" d="M33 113q25 -6 61 -7q10 0 50 3.5t73 3.5h19v98q0 74 -1.5 149.5t-3.5 151.5q-2 -2 -16 -2h-92v154h110q14 369 107.5 549t300.5 180q274 0 274 -336q0 -78 -16 -157t-51 -171l-121 55q61 160 61 277q0 186 -147 186q-135 0 -203.5 -152.5t-75.5 -428.5q10 2 20.5 2h20.5 h183v-140q-37 0 -93.5 -3t-134.5 -7v-51q0 -14 2 -16l-2 -293v-22.5t2 -22.5q78 6 191 15t266 19q-10 51 -14 106.5t-4 115.5v30h129q0 -41 2 -90t10 -108l25 -203q-84 6 -166 6q-47 0 -141.5 -6t-200 -14.5t-204.5 -14.5t-155 -6h-55z" />
<glyph unicode="&#xa4;" horiz-adv-x="1159" d="M27 209l168 164q-57 111 -58 254q0 154 66 272l-142 150l119 100l123 -127q59 51 138 79.5t177 28.5q156 0 254 -102q33 35 65 72t62 80l123 -95q-16 -23 -63 -76t-105 -112q47 -111 47 -258q0 -158 -59 -270l119 -117l-103 -102l-106 102q-106 -94 -274 -94 q-88 0 -160 24.5t-125 69.5l-156 -154zM272 623q0 -68 20.5 -127.5t59.5 -104.5t92.5 -70.5t120.5 -25.5q154 0 234 95t80 261q0 158 -79 247t-208 89q-72 0 -130.5 -27.5t-100.5 -76.5t-65.5 -116t-23.5 -144z" />
<glyph unicode="&#xa5;" horiz-adv-x="1267" d="M31 1239v152q338 0 489 34l27 -145q-47 -10 -90 -17.5t-86 -11.5q20 -31 63 -93t88 -139t84 -160t56 -157q12 51 33.5 110.5t52 130.5t71.5 158t90 195q-43 4 -89 12.5t-99 18.5l29 152q74 -18 133 -26.5t102 -8.5q45 0 109.5 11t148.5 34l29 -143q-35 -12 -87 -24.5 t-122 -29.5q-41 -98 -91 -189t-98.5 -181.5t-87 -184.5t-57.5 -200h254l-4 -107h-264q-4 -33 -4 -64.5t-4 -68.5h290v-107h-286v-39.5t1 -62.5t1 -61.5v-38.5l-144 -6v208h-258v107h256v73.5v40t1 16.5l1 3h-276v107h285q0 111 -45.5 214t-106.5 193t-124.5 167t-102.5 136z " />
<glyph unicode="&#xa6;" horiz-adv-x="419" d="M133 1354h154q0 -37 1 -94.5t2 -129t2 -155.5t3 -172l-150 -19q-2 90 -4 176.5t-4 160t-3 133t-1 100.5zM156 465l147 22q2 -96 3 -188t3 -172t3 -143.5t1 -104.5h-143q0 39 -1 100.5t-3 137.5t-5 165t-5 183z" />
<glyph unicode="&#xa7;" horiz-adv-x="978" d="M55 45l152 33q12 -115 87 -187.5t193 -72.5q51 0 95.5 16t78 45t53 69t19.5 89q0 51 -47 79.5t-116.5 45t-146.5 29t-134 32.5q-82 29 -121 90.5t-39 149.5q0 78 43 153.5t133 114.5q-168 63 -168 236q0 66 25.5 126t68.5 105t101.5 71.5t124.5 26.5q111 0 188 -86 l-14 246h151q0 -18 -1 -57t-3 -82t-3 -81t-1 -56q0 -135 21 -197l-103 -35q0 92 -56 148.5t-149 56.5q-82 0 -138 -42t-56 -128q0 -94 153 -127q133 -29 205 -48.5t88 -25.5q156 -70 156 -258q0 -80 -49 -145.5t-117 -97.5q86 -35 124 -100.5t38 -157.5q0 -74 -36 -134.5 t-95.5 -105.5t-134 -69.5t-154.5 -24.5q-174 0 -281.5 93t-134.5 263zM287 481q0 -47 42 -88.5t140 -64.5q10 -2 21.5 -2h21.5q61 0 104 17t71 47t41 69t13 82q0 45 -47 84t-170 65q-70 -4 -116 -23.5t-72.5 -49t-37.5 -65.5t-11 -71z" />
<glyph unicode="&#xa8;" horiz-adv-x="843" d="M113 1225q0 55 33.5 93t89.5 38q55 0 90.5 -38t35.5 -93q0 -53 -35.5 -94t-88.5 -41q-59 0 -92 36.5t-33 98.5zM487 1225q0 55 34 93t89 38t91 -38t36 -93q0 -53 -35.5 -94t-89.5 -41q-59 0 -92 36.5t-33 98.5z" />
<glyph unicode="&#xaa;" horiz-adv-x="614" d="M53 946q0 82 88 133l138 51q33 12 51 32t18 36q0 31 -17.5 48.5t-45.5 17.5q-41 0 -66.5 -26t-25.5 -62v-11q0 -2 2 -4l12 -12l-119 -8v26q0 37 18.5 71t47 58.5t65.5 39t74 14.5q158 0 158 -224q0 -12 -1 -33.5t-2.5 -44t-2.5 -44t-1 -31.5t2.5 -28.5t7.5 -37t11 -32 t12 -13.5q10 0 19 76h84q0 -31 -6.5 -61.5t-19.5 -54t-33.5 -39t-47.5 -15.5q-29 0 -54.5 18.5t-35.5 55.5q-45 -70 -127 -70q-37 0 -73 14.5t-65.5 38t-47 55t-17.5 66.5zM158 942q0 -27 29.5 -47.5t74.5 -20.5q39 0 62.5 30t27.5 102l2 69q-10 -8 -21 -13t-28 -15 l-102 -48q-20 -14 -32.5 -29.5t-12.5 -27.5z" />
<glyph unicode="&#xab;" horiz-adv-x="1323" d="M25 567l503 373l93 -131q-100 -78 -194.5 -135t-188.5 -100q78 -41 161.5 -97.5t175.5 -134.5l-100 -117zM687 575l503 373l93 -131q-100 -78 -194.5 -135t-188.5 -100q78 -41 161.5 -97.5t175.5 -134.5l-100 -117z" />
<glyph unicode="&#xac;" horiz-adv-x="946" d="M102 571l13 144h747v-17q-2 -113 -4 -199.5t-6 -155.5t-8 -124t-10 -106l-138 14q4 47 6.5 156.5t4.5 285.5z" />
<glyph unicode="&#xad;" horiz-adv-x="579" d="M35 612v156h215q23 0 45 2t43 2h211v-139q-35 0 -106.5 -3t-149.5 -7.5t-149.5 -7.5t-108.5 -3z" />
<glyph unicode="&#xaf;" horiz-adv-x="1030" d="M113 1178v165h164.5t128 1.5t109.5 1.5t108.5 1t125 1h160.5v-150q-37 0 -99 -1t-138 -4t-159 -5t-158.5 -5t-140 -4t-101.5 -1z" />
<glyph unicode="&#xb0;" horiz-adv-x="688" d="M70 1143q0 127 72.5 202.5t195.5 75.5q57 0 108.5 -19.5t90 -53t60 -82.5t21.5 -107q0 -72 -20 -133t-57 -107.5t-88.5 -73t-114.5 -26.5q-59 0 -108.5 23.5t-84 66.5t-55 102.5t-20.5 131.5zM186 1124q0 -68 41 -120t113 -52q78 0 120 59.5t42 143.5q0 66 -40 104.5 t-106 38.5q-76 0 -123 -49t-47 -125z" />
<glyph unicode="&#xb1;" horiz-adv-x="946" d="M96 -21l13 144h747v-144h-760zM102 571l13 158l309 -12q2 2 2 20v54q0 49 -3 100t-13 108l153 19q18 -127 19 -240v-32.5t-2 -32.5h141q6 2 12 2h10h119v-146l-291 -2q-4 -70 -6 -141.5t-2 -146.5h-155q0 80 2 153.5t6 138.5q-2 2 -25 2h-24q-23 0 -50.5 -3t-70.5 -3h-68 q-20 0 -39.5 1t-36.5 3z" />
<glyph unicode="&#xb2;" horiz-adv-x="561" d="M70 999q39 47 83 102.5t81.5 109.5t62.5 102.5t25 82.5q0 25 -19 25q-29 0 -54.5 -28.5t-45.5 -73.5l-92 49q14 27 38.5 54.5t53 49t60.5 34.5t61 13q98 0 98 -119q0 -102 -84 -213q-31 -39 -50.5 -64.5l-32.5 -42.5t-24.5 -30.5t-25.5 -25.5q57 -4 135 -12.5t168 -20.5 l-10 -98q-133 16 -235.5 23t-186.5 7z" />
<glyph unicode="&#xb3;" horiz-adv-x="460" d="M70 1400v107q27 0 78 -4t108 -9t108 -9.5t78 -4.5q-16 -18 -31.5 -36.5t-36 -44t-48 -62.5t-68.5 -90q59 -6 96 -57.5t37 -116.5q0 -86 -69.5 -157t-186.5 -109l-31 98q78 27 133.5 76t55.5 104q0 57 -53 57q-16 0 -42 -3t-63 -13l-37 57q31 47 70 98.5t92 110.5 q-57 4 -105.5 6t-84.5 2z" />
<glyph unicode="&#xb4;" horiz-adv-x="524" d="M59 1133q84 84 145.5 174t129.5 202l133 -104q-41 -55 -78 -102.5t-75 -89.5t-78.5 -80.5t-88.5 -81.5z" />
<glyph unicode="&#xb6;" horiz-adv-x="1124" d="M37 1006q0 90 28.5 163.5t82 126t128 81t166.5 28.5q16 0 58.5 -2t96.5 -5t111.5 -5t106.5 -2h262v-136l-110 5q-2 -59 -6.5 -182.5t-10.5 -277t-13 -322.5t-13 -318.5t-11.5 -266t-5.5 -165.5l-127 16q2 66 7.5 166t10.5 223t11 262.5t11 284.5t10.5 291.5t7.5 281.5 q-37 -2 -81 -4t-122 -6q-4 -98 -7 -260t-5 -361.5t-2 -426v-455.5l-138 6q2 51 2 126t1 158t2 169t3.5 159.5t2.5 130t2 80.5q-37 -12 -97 -12q-72 0 -136 34t-115.5 94t-81 142t-29.5 179zM170 989q0 -129 60.5 -202.5t183.5 -73.5q49 0 90 12q0 43 1 80t2 75t1 82v101 q0 33 -1 65.5t-3 60.5t-6 45t-11 17h-65q-143 0 -197.5 -65.5t-54.5 -196.5z" />
<glyph unicode="&#xb7;" horiz-adv-x="456" d="M92 672q0 68 40 111.5t110 43.5q66 0 107.5 -43.5t41.5 -111.5q0 -63 -41 -113.5t-106 -50.5q-72 0 -112 44t-40 120z" />
<glyph unicode="&#xb8;" horiz-adv-x="442" d="M84 -258q0 47 36 79t95 32q66 0 97.5 -29t31.5 -78q0 -145 -231 -225l-23 65q70 6 113 56q-119 12 -119 100z" />
<glyph unicode="&#xb9;" horiz-adv-x="524" d="M57 1005q47 10 83 13.5t81 3.5q2 86 6 163.5t15 151.5q-55 -14 -144 -14v104q80 0 258 45q-16 -131 -23 -242.5t-7 -222.5q29 -2 67.5 -2h79.5v-100q-18 0 -53 2t-73 3t-71.5 3t-50.5 2q-41 0 -77.5 -3t-69.5 -11z" />
<glyph unicode="&#xba;" horiz-adv-x="626" d="M68 1106q0 61 18 112.5t54 89.5t86 59.5t112 21.5q104 0 160.5 -75t56.5 -200q0 -127 -63.5 -198.5t-174.5 -71.5q-117 0 -183 72.5t-66 189.5zM162 1104q0 -68 40 -117t107 -49q78 0 119 49t41 131q0 80 -40 126t-105 46q-72 0 -117 -52t-45 -134z" />
<glyph unicode="&#xbb;" horiz-adv-x="1261" d="M43 352q37 29 82 63t91 64.5t90 58t79 44.5q-80 37 -162 87t-170 111l94 129l451 -334l-471 -358zM674 362q37 29 82 63t91 64.5t90 58t79 44.5q-80 37 -162 87t-170 111l94 129l451 -334l-471 -358z" />
<glyph unicode="&#xbc;" horiz-adv-x="1122" d="M55 -8q229 305 421 632.5t362 702.5l102 -31q-178 -387 -378 -728t-423 -640zM57 825q47 10 83 13.5t81 3.5q2 86 6 163.5t15 151.5q-55 -14 -144 -14v104q80 0 258 45q-16 -131 -23 -242.5t-7 -222.5q29 -2 67.5 -2h79.5v-100q-18 0 -53 2t-73 3t-71.5 3t-50.5 2 q-41 0 -77.5 -3t-69.5 -11zM602 158q162 238 211 467l103 -19q-47 -215 -179 -430q29 0 75 2t69 6q4 80 7 149t3 114l104 -5q-2 -35 -2 -76.5t-4 -88.5l-8 -84l74 12l18 -102l-98 -17l-8 -127l-101 -4l7 125h-131.5t-104.5 2z" />
<glyph unicode="&#xbd;" horiz-adv-x="1120" d="M57 842q47 10 83 13.5t81 3.5q2 86 6 163.5t15 151.5q-55 -14 -144 -14v104q80 0 258 45q-16 -131 -23 -242.5t-7 -222.5q29 -2 67.5 -2h79.5v-100q-18 0 -53 2t-73 3t-71.5 3t-50.5 2q-41 0 -77.5 -3t-69.5 -11zM76 -8q229 305 421 632.5t362 702.5l102 -31 q-178 -387 -378 -728t-423 -640zM633 98q39 47 83 102.5t81.5 109.5t62.5 102.5t25 82.5q0 25 -19 25q-29 0 -54.5 -28.5t-45.5 -73.5l-92 49q14 27 38.5 54.5t53 49t60.5 34.5t61 13q98 0 98 -119q0 -102 -84 -213q-31 -39 -50.5 -64.5l-32.5 -42.5t-24.5 -30.5 t-25.5 -25.5q57 -4 135 -12.5t168 -20.5l-10 -98q-133 16 -235.5 23t-186.5 7z" />
<glyph unicode="&#xbe;" horiz-adv-x="1089" d="M55 -8q229 305 421 632.5t362 702.5l102 -31q-178 -387 -378 -728t-423 -640zM125 1216v107q27 0 78 -4t108 -9t108 -9.5t78 -4.5q-16 -18 -31.5 -36.5t-36 -44t-48 -62.5t-68.5 -90q59 -6 96 -57.5t37 -116.5q0 -86 -69.5 -157t-186.5 -109l-31 98q78 27 133.5 76 t55.5 104q0 57 -53 57q-16 0 -42 -3t-63 -13l-37 57q31 47 70 98.5t92 110.5q-57 4 -105.5 6t-84.5 2zM569 141q162 238 211 467l103 -19q-47 -215 -179 -430q29 0 75 2t69 6q4 80 7 149t3 114l104 -5q-2 -35 -2 -76.5t-4 -88.5l-8 -84l74 12l18 -102l-98 -17l-8 -127 l-101 -4l7 125h-131.5t-104.5 2z" />
<glyph unicode="&#xbf;" horiz-adv-x="774" d="M45 -111q0 57 21.5 112.5t59.5 103t90 83t114 54.5q150 43 149 186q0 96 -86 174l96 96q119 -113 119 -266q0 -223 -233 -299q-76 -27 -126 -85t-50 -132q0 -135 170 -135q49 0 80.5 6t54 29.5t41 72t43.5 131.5l143 -55q-117 -324 -358 -323q-145 0 -236.5 66t-91.5 181 zM313 920q0 63 41 113t107 50q70 0 110.5 -46t40.5 -117q0 -66 -42 -112t-107 -46q-66 0 -108 46t-42 112z" />
<glyph unicode="&#xc0;" horiz-adv-x="1402" d="M37 -18l141 -2q27 0 29 2q10 37 35.5 106.5t59.5 156.5t73 183t75.5 185t69.5 164t55 118q35 82 71 149.5t69 126.5q-35 4 -117 6.5t-213 2.5v151q20 0 66.5 -2t97.5 -4t97 -4t69 -2q111 0 157 12l197 -626q53 -180 94 -338t70 -299q66 6 128 8t122 2v-148h-580v152 q41 0 87 -3t97 -13q-16 82 -32.5 164.5t-38.5 166.5q-39 -10 -88 -15t-109 -5q-18 0 -59 1t-86 2t-85 2t-59 1q-33 -68 -72.5 -170t-92.5 -244q78 -4 170 -7t202 -3v-147q-47 0 -145 1t-205.5 3t-205 3t-144.5 1v162zM487 1772l134 104q68 -113 129 -202.5t145 -173.5 l-88 -82q-47 43 -88 81.5t-79 80.5t-75 89.5t-78 102.5zM596 539q8 0 37 -1t63.5 -3.5t69.5 -3.5t53 -1q45 0 84 4.5t78 12.5q-8 31 -21.5 80t-31 107.5t-37 118.5t-35.5 115.5t-27.5 99.5t-15.5 67q-10 -51 -43 -138.5t-68.5 -178.5t-66.5 -169t-39 -110z" />
<glyph unicode="&#xc1;" horiz-adv-x="1402" d="M37 -18l141 -2q27 0 29 2q10 37 35.5 106.5t59.5 156.5t73 183t75.5 185t69.5 164t55 118q35 82 71 149.5t69 126.5q-35 4 -117 6.5t-213 2.5v151q20 0 66.5 -2t97.5 -4t97 -4t69 -2q111 0 157 12l197 -626q53 -180 94 -338t70 -299q66 6 128 8t122 2v-148h-580v152 q41 0 87 -3t97 -13q-16 82 -32.5 164.5t-38.5 166.5q-39 -10 -88 -15t-109 -5q-18 0 -59 1t-86 2t-85 2t-59 1q-33 -68 -72.5 -170t-92.5 -244q78 -4 170 -7t202 -3v-147q-47 0 -145 1t-205.5 3t-205 3t-144.5 1v162zM577 1506q84 84 145.5 174t129.5 202l133 -104 q-41 -55 -78 -102.5t-75 -89.5t-78.5 -80.5t-88.5 -81.5zM596 539q8 0 37 -1t63.5 -3.5t69.5 -3.5t53 -1q45 0 84 4.5t78 12.5q-8 31 -21.5 80t-31 107.5t-37 118.5t-35.5 115.5t-27.5 99.5t-15.5 67q-10 -51 -43 -138.5t-68.5 -178.5t-66.5 -169t-39 -110z" />
<glyph unicode="&#xc2;" horiz-adv-x="1402" d="M37 -18l141 -2q27 0 29 2q10 37 35.5 106.5t59.5 156.5t73 183t75.5 185t69.5 164t55 118q35 82 71 149.5t69 126.5q-35 4 -117 6.5t-213 2.5v151q20 0 66.5 -2t97.5 -4t97 -4t69 -2q111 0 157 12l197 -626q53 -180 94 -338t70 -299q66 6 128 8t122 2v-148h-580v152 q41 0 87 -3t97 -13q-16 82 -32.5 164.5t-38.5 166.5q-39 -10 -88 -15t-109 -5q-18 0 -59 1t-86 2t-85 2t-59 1q-33 -68 -72.5 -170t-92.5 -244q78 -4 170 -7t202 -3v-147q-47 0 -145 1t-205.5 3t-205 3t-144.5 1v162zM444 1503q41 41 77 79t69 78.5t63.5 86t65.5 100.5h123 q33 -55 64.5 -100.5t64 -86t67.5 -78.5t76 -79l-88 -78q-72 61 -129 119.5t-117 128.5q-59 -70 -117.5 -128.5t-130.5 -119.5zM596 539q8 0 37 -1t63.5 -3.5t69.5 -3.5t53 -1q45 0 84 4.5t78 12.5q-8 31 -21.5 80t-31 107.5t-37 118.5t-35.5 115.5t-27.5 99.5t-15.5 67 q-10 -51 -43 -138.5t-68.5 -178.5t-66.5 -169t-39 -110z" />
<glyph unicode="&#xc3;" horiz-adv-x="1402" d="M37 -18l141 -2q27 0 29 2q10 37 35.5 106.5t59.5 156.5t73 183t75.5 185t69.5 164t55 118q35 82 71 149.5t69 126.5q-35 4 -117 6.5t-213 2.5v151q20 0 66.5 -2t97.5 -4t97 -4t69 -2q111 0 157 12l197 -626q53 -180 94 -338t70 -299q66 6 128 8t122 2v-148h-580v152 q41 0 87 -3t97 -13q-16 82 -32.5 164.5t-38.5 166.5q-39 -10 -88 -15t-109 -5q-18 0 -59 1t-86 2t-85 2t-59 1q-33 -68 -72.5 -170t-92.5 -244q78 -4 170 -7t202 -3v-147q-47 0 -145 1t-205.5 3t-205 3t-144.5 1v162zM373 1497q10 45 32.5 84t52 67.5t63.5 45t65 16.5 q39 0 72.5 -18.5t65.5 -42t65.5 -42t76.5 -18.5q12 0 27.5 8.5t32 20.5t33 27.5t30.5 27.5l102 -90q-41 -53 -104.5 -91t-116.5 -38q-41 0 -76.5 20.5t-68.5 44t-63.5 44t-61.5 20.5q-39 0 -68.5 -41t-40.5 -94zM596 539q8 0 37 -1t63.5 -3.5t69.5 -3.5t53 -1q45 0 84 4.5 t78 12.5q-8 31 -21.5 80t-31 107.5t-37 118.5t-35.5 115.5t-27.5 99.5t-15.5 67q-10 -51 -43 -138.5t-68.5 -178.5t-66.5 -169t-39 -110z" />
<glyph unicode="&#xc4;" horiz-adv-x="1402" d="M37 -18l141 -2q27 0 29 2q10 37 35.5 106.5t59.5 156.5t73 183t75.5 185t69.5 164t55 118q35 82 71 149.5t69 126.5q-35 4 -117 6.5t-213 2.5v151q20 0 66.5 -2t97.5 -4t97 -4t69 -2q111 0 157 12l197 -626q53 -180 94 -338t70 -299q66 6 128 8t122 2v-148h-580v152 q41 0 87 -3t97 -13q-16 82 -32.5 164.5t-38.5 166.5q-39 -10 -88 -15t-109 -5q-18 0 -59 1t-86 2t-85 2t-59 1q-33 -68 -72.5 -170t-92.5 -244q78 -4 170 -7t202 -3v-147q-47 0 -145 1t-205.5 3t-205 3t-144.5 1v162zM482 1573q0 55 33.5 93t89.5 38q55 0 90.5 -38t35.5 -93 q0 -53 -35.5 -94t-88.5 -41q-59 0 -92 36.5t-33 98.5zM596 539q8 0 37 -1t63.5 -3.5t69.5 -3.5t53 -1q45 0 84 4.5t78 12.5q-8 31 -21.5 80t-31 107.5t-37 118.5t-35.5 115.5t-27.5 99.5t-15.5 67q-10 -51 -43 -138.5t-68.5 -178.5t-66.5 -169t-39 -110zM856 1573 q0 55 34 93t89 38t91 -38t36 -93q0 -53 -35.5 -94t-89.5 -41q-59 0 -92 36.5t-33 98.5z" />
<glyph unicode="&#xc5;" horiz-adv-x="1402" d="M37 -18l141 -2q27 0 29 2q10 37 35.5 106.5t59.5 156.5t73 183t75.5 185t69.5 164t55 118q35 82 71 149.5t69 126.5q-35 4 -117 6.5t-213 2.5v151q20 0 66.5 -2t97.5 -4t97 -4t69 -2q111 0 157 12l197 -626q53 -180 94 -338t70 -299q66 6 128 8t122 2v-148h-580v152 q41 0 87 -3t97 -13q-16 82 -32.5 164.5t-38.5 166.5q-39 -10 -88 -15t-109 -5q-18 0 -59 1t-86 2t-85 2t-59 1q-33 -68 -72.5 -170t-92.5 -244q78 -4 170 -7t202 -3v-147q-47 0 -145 1t-205.5 3t-205 3t-144.5 1v162zM578 1650q0 96 60.5 153.5t160.5 57.5q94 0 161.5 -54 t67.5 -144q0 -55 -16 -102.5t-47 -82t-73 -55t-93 -20.5q-98 0 -159.5 68t-61.5 179zM596 539q8 0 37 -1t63.5 -3.5t69.5 -3.5t53 -1q45 0 84 4.5t78 12.5q-8 31 -21.5 80t-31 107.5t-37 118.5t-35.5 115.5t-27.5 99.5t-15.5 67q-10 -51 -43 -138.5t-68.5 -178.5t-66.5 -169 t-39 -110zM682 1636q0 -47 31 -85t86 -38q59 0 92 42t33 102q0 47 -32 74.5t-79 27.5q-59 0 -95 -35t-36 -88z" />
<glyph unicode="&#xc6;" horiz-adv-x="1794" d="M37 63l418 35q66 352 137.5 619.5t146.5 472.5l-411 -16v172h1323l45 -408l-135 -70l-54 340l-442 -28v-512l233 6l-45 246l150 36l80 -655l-137 -25l-35 256l-258 -12v-397l571 18l-35 254l152 21l39 -471l-871 -19v574l-233 -58l-133 -555l-506 23v153zM711 614l192 39 v527l-26 2z" />
<glyph unicode="&#xc7;" horiz-adv-x="1245" d="M68 584q0 154 46 298t125.5 255.5t187.5 180t232 68.5q121 0 244 -67l-2 111h156q-2 -2 -2 -35v-43q0 -10 -2 -17.5t-2 -29.5v-66q0 -39 2 -74t6 -67l-137 -21q-10 78 -65.5 117t-147.5 39q-115 0 -206 -50t-155.5 -135t-99.5 -194t-35 -225q0 -127 39 -235.5 t107.5 -188.5t163.5 -126t206 -46q219 0 412 176l104 -113q-117 -111 -224.5 -164t-203.5 -53q-170 0 -308 47t-236.5 138.5t-151.5 222.5t-53 297zM541 -258q0 47 36 79t95 32q66 0 97.5 -29t31.5 -78q0 -145 -231 -225l-23 65q70 6 113 56q-119 12 -119 100z" />
<glyph unicode="&#xc8;" horiz-adv-x="1077" d="M51 96q70 10 124 13.5t95 5.5v51q0 53 1 136t3 180.5t5.5 203t5.5 203.5t3 181t1 138v47l-139 -12l-11 154q104 10 200.5 14t201.5 4q127 0 248.5 -6t242.5 -20q-10 -61 -15 -132t-5 -149h-144l-2 90q0 20 2 35.5t4 32.5q-117 6 -233 6q-47 0 -96 -1t-101 -3v-437 q68 4 117 5.5t86 1.5q0 55 3 102t7 88l154 -16q-4 -92 -6 -166t-2 -129q0 -109 6 -197l-154 -6q-6 74 -6 174l-205 -8l-16 -272q-8 -86 -10 -153t-2 -116v-26l186 -11q59 -4 104.5 -7t79.5 -1q29 0 54.5 1t52.5 3q-10 76 -15.5 132.5t-5.5 97.5h144q0 -27 3 -78t8 -108.5 t8 -107.5t3 -75h-65q-37 0 -108.5 1t-147.5 2t-141.5 2t-92.5 1q-119 0 -221 -5t-192 -17zM360 1823l134 104q68 -113 129 -202.5t145 -173.5l-88 -82q-47 43 -88 81.5t-79 80.5t-75 89.5t-78 102.5z" />
<glyph unicode="&#xc9;" horiz-adv-x="1077" d="M51 96q70 10 124 13.5t95 5.5v51q0 53 1 136t3 180.5t5.5 203t5.5 203.5t3 181t1 138v47l-139 -12l-11 154q104 10 200.5 14t201.5 4q127 0 248.5 -6t242.5 -20q-10 -61 -15 -132t-5 -149h-144l-2 90q0 20 2 35.5t4 32.5q-117 6 -233 6q-47 0 -96 -1t-101 -3v-437 q68 4 117 5.5t86 1.5q0 55 3 102t7 88l154 -16q-4 -92 -6 -166t-2 -129q0 -109 6 -197l-154 -6q-6 74 -6 174l-205 -8l-16 -272q-8 -86 -10 -153t-2 -116v-26l186 -11q59 -4 104.5 -7t79.5 -1q29 0 54.5 1t52.5 3q-10 76 -15.5 132.5t-5.5 97.5h144q0 -27 3 -78t8 -108.5 t8 -107.5t3 -75h-65q-37 0 -108.5 1t-147.5 2t-141.5 2t-92.5 1q-119 0 -221 -5t-192 -17zM438 1545q84 84 145.5 174t129.5 202l133 -104q-41 -55 -78 -102.5t-75 -89.5t-78.5 -80.5t-88.5 -81.5z" />
<glyph unicode="&#xca;" horiz-adv-x="1077" d="M51 96q70 10 124 13.5t95 5.5v51q0 53 1 136t3 180.5t5.5 203t5.5 203.5t3 181t1 138v47l-139 -12l-11 154q104 10 200.5 14t201.5 4q127 0 248.5 -6t242.5 -20q-10 -61 -15 -132t-5 -149h-144l-2 90q0 20 2 35.5t4 32.5q-117 6 -233 6q-47 0 -96 -1t-101 -3v-437 q68 4 117 5.5t86 1.5q0 55 3 102t7 88l154 -16q-4 -92 -6 -166t-2 -129q0 -109 6 -197l-154 -6q-6 74 -6 174l-205 -8l-16 -272q-8 -86 -10 -153t-2 -116v-26l186 -11q59 -4 104.5 -7t79.5 -1q29 0 54.5 1t52.5 3q-10 76 -15.5 132.5t-5.5 97.5h144q0 -27 3 -78t8 -108.5 t8 -107.5t3 -75h-65q-37 0 -108.5 1t-147.5 2t-141.5 2t-92.5 1q-119 0 -221 -5t-192 -17zM276 1563q41 41 77 79t69 78.5t63.5 86t65.5 100.5h123q33 -55 64.5 -100.5t64 -86t67.5 -78.5t76 -79l-88 -78q-72 61 -129 119.5t-117 128.5q-59 -70 -117.5 -128.5t-130.5 -119.5 z" />
<glyph unicode="&#xcb;" horiz-adv-x="1077" d="M51 96q70 10 124 13.5t95 5.5v51q0 53 1 136t3 180.5t5.5 203t5.5 203.5t3 181t1 138v47l-139 -12l-11 154q104 10 200.5 14t201.5 4q127 0 248.5 -6t242.5 -20q-10 -61 -15 -132t-5 -149h-144l-2 90q0 20 2 35.5t4 32.5q-117 6 -233 6q-47 0 -96 -1t-101 -3v-437 q68 4 117 5.5t86 1.5q0 55 3 102t7 88l154 -16q-4 -92 -6 -166t-2 -129q0 -109 6 -197l-154 -6q-6 74 -6 174l-205 -8l-16 -272q-8 -86 -10 -153t-2 -116v-26l186 -11q59 -4 104.5 -7t79.5 -1q29 0 54.5 1t52.5 3q-10 76 -15.5 132.5t-5.5 97.5h144q0 -27 3 -78t8 -108.5 t8 -107.5t3 -75h-65q-37 0 -108.5 1t-147.5 2t-141.5 2t-92.5 1q-119 0 -221 -5t-192 -17zM299 1647q0 55 33.5 93t89.5 38q55 0 90.5 -38t35.5 -93q0 -53 -35.5 -94t-88.5 -41q-59 0 -92 36.5t-33 98.5zM673 1647q0 55 34 93t89 38t91 -38t36 -93q0 -53 -35.5 -94 t-89.5 -41q-59 0 -92 36.5t-33 98.5z" />
<glyph unicode="&#xcc;" horiz-adv-x="667" d="M59 57l64 2q23 0 48.5 -4t53.5 -2h15q12 203 23 503t24 714q-51 -10 -104.5 -15.5t-112.5 -5.5v158h553v-137q-45 0 -90.5 2t-90.5 6q-2 -61 -6 -162.5t-9 -223.5t-10 -252t-10.5 -247t-8.5 -212t-5 -144q2 -2 29 -2h151v-154q-51 2 -112.5 3t-143.5 5l-258 15v153z M133 1827l134 104q68 -113 129 -202.5t145 -173.5l-88 -82q-47 43 -88 81.5t-79 80.5t-75 89.5t-78 102.5z" />
<glyph unicode="&#xcd;" horiz-adv-x="667" d="M59 57l64 2q23 0 48.5 -4t53.5 -2h15q12 203 23 503t24 714q-51 -10 -104.5 -15.5t-112.5 -5.5v158h553v-137q-45 0 -90.5 2t-90.5 6q-2 -61 -6 -162.5t-9 -223.5t-10 -252t-10.5 -247t-8.5 -212t-5 -144q2 -2 29 -2h151v-154q-51 2 -112.5 3t-143.5 5l-258 15v153z M198 1547q84 84 145.5 174t129.5 202l133 -104q-41 -55 -78 -102.5t-75 -89.5t-78.5 -80.5t-88.5 -81.5z" />
<glyph unicode="&#xce;" horiz-adv-x="667" d="M28 1563q41 41 77 79t69 78.5t63.5 86t65.5 100.5h123q33 -55 64.5 -100.5t64 -86t67.5 -78.5t76 -79l-88 -78q-72 61 -129 119.5t-117 128.5q-59 -70 -117.5 -128.5t-130.5 -119.5zM59 57l64 2q23 0 48.5 -4t53.5 -2h15q12 203 23 503t24 714q-51 -10 -104.5 -15.5 t-112.5 -5.5v158h553v-137q-45 0 -90.5 2t-90.5 6q-2 -61 -6 -162.5t-9 -223.5t-10 -252t-10.5 -247t-8.5 -212t-5 -144q2 -2 29 -2h151v-154q-51 2 -112.5 3t-143.5 5l-258 15v153z" />
<glyph unicode="&#xcf;" horiz-adv-x="667" d="M54 1643q0 55 33.5 93t89.5 38q55 0 90.5 -38t35.5 -93q0 -53 -35.5 -94t-88.5 -41q-59 0 -92 36.5t-33 98.5zM59 57l64 2q23 0 48.5 -4t53.5 -2h15q12 203 23 503t24 714q-51 -10 -104.5 -15.5t-112.5 -5.5v158h553v-137q-45 0 -90.5 2t-90.5 6q-2 -61 -6 -162.5 t-9 -223.5t-10 -252t-10.5 -247t-8.5 -212t-5 -144q2 -2 29 -2h151v-154q-51 2 -112.5 3t-143.5 5l-258 15v153zM428 1643q0 55 34 93t89 38t91 -38t36 -93q0 -53 -35.5 -94t-89.5 -41q-59 0 -92 36.5t-33 98.5z" />
<glyph unicode="&#xd0;" horiz-adv-x="1253" d="M47 -59l39 147l145 -41q8 53 13.5 108.5t9.5 123t6 149.5t2 188q-47 -2 -88 -3t-63 -1v156h149q-2 72 -4 148.5t-4 145t-3 124t-1 84.5l-135 -6v153q27 0 84 2t120.5 5t123 6.5t91.5 3.5q330 0 497 -163t167 -495q0 -186 -61.5 -348t-172 -281.5t-261 -188.5t-328.5 -69 q-158 0 -326 52zM377 23q121 6 241.5 65t218 152.5t159 211t61.5 238.5q0 172 -30 289t-96.5 187.5t-174 100t-264.5 29.5h-75t-18 -2v-16q0 -37 1 -95.5t3.5 -128t4.5 -142t4 -140.5h213v-139q-31 0 -87.5 -2t-123.5 -6q0 -207 -8.5 -347.5t-28.5 -254.5z" />
<glyph unicode="&#xd1;" horiz-adv-x="1525" d="M29 66q29 4 54.5 6t51.5 2q76 0 158 -17q0 53 2 137.5t4 182.5t6 203.5t6 201t4 173t2 120.5v176q-33 2 -77.5 4t-126.5 2v140q16 0 30.5 -1t28.5 -1q68 0 138.5 4t148.5 8q88 -180 155.5 -314.5t122 -236.5t98.5 -180t85 -145.5t82.5 -130t93.5 -136.5q4 88 6 170t2 172 q0 227 -11.5 419t-37.5 378q27 -2 90 -8t136 -12.5t140.5 -11.5t104.5 -5v-152q-127 0 -301 31v-1286h-138q-55 113 -134 252t-183 307q-164 264 -241.5 397.5t-86.5 149.5q-10 -98 -15 -202.5t-5 -221.5v-346q2 -23 2 -44.5v-41.5v-297q-16 0 -55 3t-83 6t-85 6t-62 3 q-51 0 -90 -8zM449 1538q10 45 32.5 84t52 67.5t63.5 45t65 16.5q39 0 72.5 -18.5t65.5 -42t65.5 -42t76.5 -18.5q12 0 27.5 8.5t32 20.5t33 27.5t30.5 27.5l102 -90q-41 -53 -104.5 -91t-116.5 -38q-41 0 -76.5 20.5t-68.5 44t-63.5 44t-61.5 20.5q-39 0 -68.5 -41 t-40.5 -94z" />
<glyph unicode="&#xd2;" horiz-adv-x="1427" d="M55 684q0 152 51.5 283t140.5 228t212 153.5t268 56.5q147 0 267 -60.5t205 -167t131 -252t46 -315.5q0 -147 -46 -270t-128 -211t-197.5 -137t-252.5 -49q-152 0 -279 56t-220 154.5t-145.5 234.5t-52.5 296zM201 705q0 -127 40 -237t112.5 -192.5t172 -130t217.5 -47.5 q111 0 201 40t152.5 112t96.5 170t34 215q0 137 -38 250.5t-106.5 195.5t-163 128t-206.5 46q-109 0 -202 -40.5t-162.5 -113.5t-108.5 -174.5t-39 -221.5zM518 1819l134 104q68 -113 129 -202.5t145 -173.5l-88 -82q-47 43 -88 81.5t-79 80.5t-75 89.5t-78 102.5z" />
<glyph unicode="&#xd3;" horiz-adv-x="1427" d="M55 684q0 152 51.5 283t140.5 228t212 153.5t268 56.5q147 0 267 -60.5t205 -167t131 -252t46 -315.5q0 -147 -46 -270t-128 -211t-197.5 -137t-252.5 -49q-152 0 -279 56t-220 154.5t-145.5 234.5t-52.5 296zM201 705q0 -127 40 -237t112.5 -192.5t172 -130t217.5 -47.5 q111 0 201 40t152.5 112t96.5 170t34 215q0 137 -38 250.5t-106.5 195.5t-163 128t-206.5 46q-109 0 -202 -40.5t-162.5 -113.5t-108.5 -174.5t-39 -221.5zM546 1547q84 84 145.5 174t129.5 202l133 -104q-41 -55 -78 -102.5t-75 -89.5t-78.5 -80.5t-88.5 -81.5z" />
<glyph unicode="&#xd4;" horiz-adv-x="1427" d="M55 684q0 152 51.5 283t140.5 228t212 153.5t268 56.5q147 0 267 -60.5t205 -167t131 -252t46 -315.5q0 -147 -46 -270t-128 -211t-197.5 -137t-252.5 -49q-152 0 -279 56t-220 154.5t-145.5 234.5t-52.5 296zM201 705q0 -127 40 -237t112.5 -192.5t172 -130t217.5 -47.5 q111 0 201 40t152.5 112t96.5 170t34 215q0 137 -38 250.5t-106.5 195.5t-163 128t-206.5 46q-109 0 -202 -40.5t-162.5 -113.5t-108.5 -174.5t-39 -221.5zM399 1528q41 41 77 79t69 78.5t63.5 86t65.5 100.5h123q33 -55 64.5 -100.5t64 -86t67.5 -78.5t76 -79l-88 -78 q-72 61 -129 119.5t-117 128.5q-59 -70 -117.5 -128.5t-130.5 -119.5z" />
<glyph unicode="&#xd5;" horiz-adv-x="1427" d="M55 684q0 152 51.5 283t140.5 228t212 153.5t268 56.5q147 0 267 -60.5t205 -167t131 -252t46 -315.5q0 -147 -46 -270t-128 -211t-197.5 -137t-252.5 -49q-152 0 -279 56t-220 154.5t-145.5 234.5t-52.5 296zM201 705q0 -127 40 -237t112.5 -192.5t172 -130t217.5 -47.5 q111 0 201 40t152.5 112t96.5 170t34 215q0 137 -38 250.5t-106.5 195.5t-163 128t-206.5 46q-109 0 -202 -40.5t-162.5 -113.5t-108.5 -174.5t-39 -221.5zM375 1560q10 45 32.5 84t52 67.5t63.5 45t65 16.5q39 0 72.5 -18.5t65.5 -42t65.5 -42t76.5 -18.5q12 0 27.5 8.5 t32 20.5t33 27.5t30.5 27.5l102 -90q-41 -53 -104.5 -91t-116.5 -38q-41 0 -76.5 20.5t-68.5 44t-63.5 44t-61.5 20.5q-39 0 -68.5 -41t-40.5 -94z" />
<glyph unicode="&#xd6;" horiz-adv-x="1427" d="M55 684q0 152 51.5 283t140.5 228t212 153.5t268 56.5q147 0 267 -60.5t205 -167t131 -252t46 -315.5q0 -147 -46 -270t-128 -211t-197.5 -137t-252.5 -49q-152 0 -279 56t-220 154.5t-145.5 234.5t-52.5 296zM201 705q0 -127 40 -237t112.5 -192.5t172 -130t217.5 -47.5 q111 0 201 40t152.5 112t96.5 170t34 215q0 137 -38 250.5t-106.5 195.5t-163 128t-206.5 46q-109 0 -202 -40.5t-162.5 -113.5t-108.5 -174.5t-39 -221.5zM445 1633q0 55 33.5 93t89.5 38q55 0 90.5 -38t35.5 -93q0 -53 -35.5 -94t-88.5 -41q-59 0 -92 36.5t-33 98.5z M819 1633q0 55 34 93t89 38t91 -38t36 -93q0 -53 -35.5 -94t-89.5 -41q-59 0 -92 36.5t-33 98.5z" />
<glyph unicode="&#xd7;" horiz-adv-x="946" d="M150 846l114 108l221 -217q41 39 92.5 99.5t86.5 117.5l127 -88q-47 -70 -93.5 -124t-97.5 -113l209 -187l-98 -108l-217 194q-49 -49 -99.5 -101t-101.5 -108l-115 105q53 59 105.5 112.5t99.5 98.5q-63 59 -122.5 108.5t-110.5 102.5z" />
<glyph unicode="&#xd8;" horiz-adv-x="1404" d="M37 684q0 150 50 281t140 229t214 154.5t270 56.5q131 0 233 -45q10 23 19.5 38t19.5 32l133 -78l-43 -68q147 -119 217 -290t70 -384q0 -147 -46 -270t-129 -211t-199 -137t-255 -49q-195 0 -348 86q-16 -23 -34.5 -40.5t-35.5 -37.5l-98 100q25 23 55 62 q-119 121 -176 255t-57 316zM182 705q0 -281 183 -463q35 55 69.5 113.5t77.5 138t99.5 193.5t136.5 282q37 72 66.5 137t57.5 119q-74 30 -178 30q-111 0 -205 -42t-161.5 -116.5t-106.5 -175t-39 -216.5zM481 156q102 -57 246 -58q111 0 200 40t151.5 112t96 170t33.5 215 q0 166 -51 285.5t-156 228.5q-80 -166 -140 -292t-108 -221t-85 -165t-69 -124t-59.5 -100t-58.5 -91z" />
<glyph unicode="&#xd9;" horiz-adv-x="1306" d="M45 1286v154q29 0 95.5 3t141 6t140 6t94.5 3v-139l-147 -4q-2 -35 -7.5 -111t-10.5 -163t-9 -167.5t-4 -123.5q0 -670 360 -670q315 0 316 694q0 33 -3 105.5t-6.5 154.5t-6.5 158t-3 113l-207 6v153q33 0 103 -4t145.5 -9t144 -10t103.5 -7v-138h-139v-65q0 -43 3 -117 t6 -151.5t6 -146t3 -101.5q0 -397 -110.5 -593t-354.5 -196q-260 0 -381.5 204t-121.5 642q0 43 2 108.5t6 151.5l12 260zM366 1819l134 104q68 -113 129 -202.5t145 -173.5l-88 -82q-47 43 -88 81.5t-79 80.5t-75 89.5t-78 102.5z" />
<glyph unicode="&#xda;" horiz-adv-x="1306" d="M45 1286v154q29 0 95.5 3t141 6t140 6t94.5 3v-139l-147 -4q-2 -35 -7.5 -111t-10.5 -163t-9 -167.5t-4 -123.5q0 -670 360 -670q315 0 316 694q0 33 -3 105.5t-6.5 154.5t-6.5 158t-3 113l-207 6v153q33 0 103 -4t145.5 -9t144 -10t103.5 -7v-138h-139v-65q0 -43 3 -117 t6 -151.5t6 -146t3 -101.5q0 -397 -110.5 -593t-354.5 -196q-260 0 -381.5 204t-121.5 642q0 43 2 108.5t6 151.5l12 260zM542 1559q84 84 145.5 174t129.5 202l133 -104q-41 -55 -78 -102.5t-75 -89.5t-78.5 -80.5t-88.5 -81.5z" />
<glyph unicode="&#xdb;" horiz-adv-x="1306" d="M45 1286v154q29 0 95.5 3t141 6t140 6t94.5 3v-139l-147 -4q-2 -35 -7.5 -111t-10.5 -163t-9 -167.5t-4 -123.5q0 -670 360 -670q315 0 316 694q0 33 -3 105.5t-6.5 154.5t-6.5 158t-3 113l-207 6v153q33 0 103 -4t145.5 -9t144 -10t103.5 -7v-138h-139v-65q0 -43 3 -117 t6 -151.5t6 -146t3 -101.5q0 -397 -110.5 -593t-354.5 -196q-260 0 -381.5 204t-121.5 642q0 43 2 108.5t6 151.5l12 260zM350 1587q41 41 77 79t69 78.5t63.5 86t65.5 100.5h123q33 -55 64.5 -100.5t64 -86t67.5 -78.5t76 -79l-88 -78q-72 61 -129 119.5t-117 128.5 q-59 -70 -117.5 -128.5t-130.5 -119.5z" />
<glyph unicode="&#xdc;" horiz-adv-x="1306" d="M45 1286v154q29 0 95.5 3t141 6t140 6t94.5 3v-139l-147 -4q-2 -35 -7.5 -111t-10.5 -163t-9 -167.5t-4 -123.5q0 -670 360 -670q315 0 316 694q0 33 -3 105.5t-6.5 154.5t-6.5 158t-3 113l-207 6v153q33 0 103 -4t145.5 -9t144 -10t103.5 -7v-138h-139v-65q0 -43 3 -117 t6 -151.5t6 -146t3 -101.5q0 -397 -110.5 -593t-354.5 -196q-260 0 -381.5 204t-121.5 642q0 43 2 108.5t6 151.5l12 260zM363 1667q0 55 33.5 93t89.5 38q55 0 90.5 -38t35.5 -93q0 -53 -35.5 -94t-88.5 -41q-59 0 -92 36.5t-33 98.5zM737 1667q0 55 34 93t89 38t91 -38 t36 -93q0 -53 -35.5 -94t-89.5 -41q-59 0 -92 36.5t-33 98.5z" />
<glyph unicode="&#xdd;" horiz-adv-x="1404" d="M25 1239v152q375 0 542 34l27 -145q-49 -10 -96 -17.5t-95 -11.5q27 -31 71 -97.5t91 -138t91 -137t71 -96.5q27 45 95.5 170t176.5 344q-47 4 -100 12.5t-108 18.5l28 152q84 -18 149.5 -26.5t116.5 -8.5q41 0 113 11t170 34l37 -143q-39 -12 -96.5 -24.5t-139.5 -29.5 q-27 -51 -72.5 -129t-113.5 -194q-61 -92 -100 -172t-62.5 -156t-32 -155.5t-8.5 -172.5q0 -47 2 -97t6 -110q0 2 25 3h25q41 0 88 -6.5t100 -16.5l-27 -141q-29 6 -63.5 10t-73.5 4q-31 0 -89 -4t-122.5 -10t-122 -10.5t-84.5 -4.5v152q123 0 191 6q-4 66 -8 124t-4 114 q0 88 7 170t19 157q-121 199 -228.5 344.5t-211.5 249.5zM608 1575q84 84 145.5 174t129.5 202l133 -104q-41 -55 -78 -102.5t-75 -89.5t-78.5 -80.5t-88.5 -81.5z" />
<glyph unicode="&#xde;" horiz-adv-x="1128" d="M104 1249v158h553v-137q-47 0 -93 2t-91 6v-143h57q125 0 230.5 -28t182.5 -80t119 -128t42 -170q0 -98 -43 -181t-113.5 -144.5t-163 -96.5t-190.5 -35q-41 0 -74 4.5t-63 10.5l10 -193h254v-153q-39 0 -121 -2t-173 -3.5t-174 -3.5t-120 -2v152l180 2q4 57 4 110.5 v104.5v222.5t-1 187.5t-1 158.5v138.5q0 86 1 151.5t3 112.5q-51 -10 -103 -15.5t-112 -5.5zM453 684q0 -125 6 -242q43 -12 112 -12q86 0 158 19.5t124 56.5t81 89t29 118q0 268 -402 268h-74q-29 0 -28 -2q-6 -207 -6 -295z" />
<glyph unicode="&#xdf;" horiz-adv-x="909" d="M96 1118q0 362 293 363q217 0 217 -172q0 -29 -17.5 -92.5t-38 -135t-37.5 -140.5t-17 -105q0 -57 27.5 -117t68.5 -119t89 -116.5t89 -112t68.5 -103.5t27.5 -90q0 -152 -301 -295l-65 140q201 92 200 178q0 43 -92 141q-76 80 -126 142.5t-78.5 120t-41 111.5 t-12.5 120q0 10 16.5 63t37 120.5t37 133.5t16.5 100q0 90 -68 90q-154 0 -153 -260q0 -174 81 -546q27 -121 39.5 -191t12.5 -86q0 -143 -150 -342l-121 92q43 55 70 91t40 61.5t18 47t5 50.5q0 31 -12 107.5t-41 199.5q-82 373 -82 551z" />
<glyph unicode="&#xe0;" d="M37 236q0 147 141 223l262 100q141 51 142 146q0 63 -38 100t-100 37q-80 0 -134 -52.5t-54 -130.5v-18q0 -12 2 -14l-156 -13v31q0 66 32 124t83 103.5t115.5 71t130.5 25.5q270 0 270 -400q0 -20 -2 -60t-3 -84t-3 -83t-2 -57t5 -56.5t16.5 -76t26.5 -66.5t34 -29 q37 0 49 142h123q0 -49 -11.5 -98.5t-35 -87.5t-56 -62.5t-75.5 -24.5q-59 0 -107.5 47t-60.5 129q-66 -170 -236 -170q-66 0 -130 25t-115.5 65.5t-82 96t-30.5 117.5zM188 229q0 -31 17.5 -57.5t46.5 -46t67.5 -31.5t81.5 -12q88 0 134.5 58.5t56.5 203.5l4 186 q-12 -41 -123 -92q-176 -84 -186 -90q-98 -59 -99 -119zM241 1368l134 104q68 -113 129 -202.5t145 -173.5l-88 -82q-47 43 -88 81.5t-79 80.5t-75 89.5t-78 102.5z" />
<glyph unicode="&#xe1;" d="M37 236q0 147 141 223l262 100q141 51 142 146q0 63 -38 100t-100 37q-80 0 -134 -52.5t-54 -130.5v-18q0 -12 2 -14l-156 -13v31q0 66 32 124t83 103.5t115.5 71t130.5 25.5q270 0 270 -400q0 -20 -2 -60t-3 -84t-3 -83t-2 -57t5 -56.5t16.5 -76t26.5 -66.5t34 -29 q37 0 49 142h123q0 -49 -11.5 -98.5t-35 -87.5t-56 -62.5t-75.5 -24.5q-59 0 -107.5 47t-60.5 129q-66 -170 -236 -170q-66 0 -130 25t-115.5 65.5t-82 96t-30.5 117.5zM188 229q0 -31 17.5 -57.5t46.5 -46t67.5 -31.5t81.5 -12q88 0 134.5 58.5t56.5 203.5l4 186 q-12 -41 -123 -92q-176 -84 -186 -90q-98 -59 -99 -119zM241 1084q84 84 145.5 174t129.5 202l133 -104q-41 -55 -78 -102.5t-75 -89.5t-78.5 -80.5t-88.5 -81.5z" />
<glyph unicode="&#xe2;" d="M37 236q0 147 141 223l262 100q141 51 142 146q0 63 -38 100t-100 37q-80 0 -134 -52.5t-54 -130.5v-18q0 -12 2 -14l-156 -13v31q0 66 32 124t83 103.5t115.5 71t130.5 25.5q270 0 270 -400q0 -20 -2 -60t-3 -84t-3 -83t-2 -57t5 -56.5t16.5 -76t26.5 -66.5t34 -29 q37 0 49 142h123q0 -49 -11.5 -98.5t-35 -87.5t-56 -62.5t-75.5 -24.5q-59 0 -107.5 47t-60.5 129q-66 -170 -236 -170q-66 0 -130 25t-115.5 65.5t-82 96t-30.5 117.5zM133 1065q41 41 77 79t69 78.5t63.5 86t65.5 100.5h123q33 -55 64.5 -100.5t64 -86t67.5 -78.5t76 -79 l-88 -78q-72 61 -129 119.5t-117 128.5q-59 -70 -117.5 -128.5t-130.5 -119.5zM188 229q0 -31 17.5 -57.5t46.5 -46t67.5 -31.5t81.5 -12q88 0 134.5 58.5t56.5 203.5l4 186q-12 -41 -123 -92q-176 -84 -186 -90q-98 -59 -99 -119z" />
<glyph unicode="&#xe3;" d="M37 236q0 147 141 223l262 100q141 51 142 146q0 63 -38 100t-100 37q-80 0 -134 -52.5t-54 -130.5v-18q0 -12 2 -14l-156 -13v31q0 66 32 124t83 103.5t115.5 71t130.5 25.5q270 0 270 -400q0 -20 -2 -60t-3 -84t-3 -83t-2 -57t5 -56.5t16.5 -76t26.5 -66.5t34 -29 q37 0 49 142h123q0 -49 -11.5 -98.5t-35 -87.5t-56 -62.5t-75.5 -24.5q-59 0 -107.5 47t-60.5 129q-66 -170 -236 -170q-66 0 -130 25t-115.5 65.5t-82 96t-30.5 117.5zM107 1132q10 45 32.5 84t52 67.5t63.5 45t65 16.5q39 0 72.5 -18.5t65.5 -42t65.5 -42t76.5 -18.5 q12 0 27.5 8.5t32 20.5t33 27.5t30.5 27.5l102 -90q-41 -53 -104.5 -91t-116.5 -38q-41 0 -76.5 20.5t-68.5 44t-63.5 44t-61.5 20.5q-39 0 -68.5 -41t-40.5 -94zM188 229q0 -31 17.5 -57.5t46.5 -46t67.5 -31.5t81.5 -12q88 0 134.5 58.5t56.5 203.5l4 186 q-12 -41 -123 -92q-176 -84 -186 -90q-98 -59 -99 -119z" />
<glyph unicode="&#xe4;" d="M37 236q0 147 141 223l262 100q141 51 142 146q0 63 -38 100t-100 37q-80 0 -134 -52.5t-54 -130.5v-18q0 -12 2 -14l-156 -13v31q0 66 32 124t83 103.5t115.5 71t130.5 25.5q270 0 270 -400q0 -20 -2 -60t-3 -84t-3 -83t-2 -57t5 -56.5t16.5 -76t26.5 -66.5t34 -29 q37 0 49 142h123q0 -49 -11.5 -98.5t-35 -87.5t-56 -62.5t-75.5 -24.5q-59 0 -107.5 47t-60.5 129q-66 -170 -236 -170q-66 0 -130 25t-115.5 65.5t-82 96t-30.5 117.5zM148 1194q0 55 33.5 93t89.5 38q55 0 90.5 -38t35.5 -93q0 -53 -35.5 -94t-88.5 -41q-59 0 -92 36.5 t-33 98.5zM188 229q0 -31 17.5 -57.5t46.5 -46t67.5 -31.5t81.5 -12q88 0 134.5 58.5t56.5 203.5l4 186q-12 -41 -123 -92q-176 -84 -186 -90q-98 -59 -99 -119zM522 1194q0 55 34 93t89 38t91 -38t36 -93q0 -53 -35.5 -94t-89.5 -41q-59 0 -92 36.5t-33 98.5z" />
<glyph unicode="&#xe5;" d="M37 236q0 147 141 223l262 100q141 51 142 146q0 63 -38 100t-100 37q-80 0 -134 -52.5t-54 -130.5v-18q0 -12 2 -14l-156 -13v31q0 66 32 124t83 103.5t115.5 71t130.5 25.5q270 0 270 -400q0 -20 -2 -60t-3 -84t-3 -83t-2 -57t5 -56.5t16.5 -76t26.5 -66.5t34 -29 q37 0 49 142h123q0 -49 -11.5 -98.5t-35 -87.5t-56 -62.5t-75.5 -24.5q-59 0 -107.5 47t-60.5 129q-66 -170 -236 -170q-66 0 -130 25t-115.5 65.5t-82 96t-30.5 117.5zM188 229q0 -31 17.5 -57.5t46.5 -46t67.5 -31.5t81.5 -12q88 0 134.5 58.5t56.5 203.5l4 186 q-12 -41 -123 -92q-176 -84 -186 -90q-98 -59 -99 -119zM240 1263q0 96 60.5 153.5t160.5 57.5q94 0 161.5 -54t67.5 -144q0 -55 -16 -102.5t-47 -82t-73 -55t-93 -20.5q-98 0 -159.5 68t-61.5 179zM344 1249q0 -47 31 -85t86 -38q59 0 92 42t33 102q0 47 -32 74.5t-79 27.5 q-59 0 -95 -35t-36 -88z" />
<glyph unicode="&#xe6;" horiz-adv-x="1370" d="M39 61q0 51 21.5 104.5t73.5 109t140 109.5t220 105q2 23 3 42.5t1 35.5q0 76 -17.5 127t-44.5 51q-29 0 -57.5 -9t-56 -39.5t-56 -88t-57.5 -153.5l-139 57q39 109 85 184.5t94 123.5t94 69.5t85 21.5t74 -23.5t60.5 -65.5t42 -96t20.5 -116q68 100 133 165t126.5 101.5 t117 51t98.5 14.5q100 0 157.5 -61.5t57.5 -153.5q0 -74 -46 -128t-132 -95t-209 -71t-277 -50q-12 -59 -12 -104q0 -113 56.5 -177.5t172.5 -64.5q41 0 87 13t88 41t76 73t52 106l134 -57q-35 -86 -85.5 -142.5t-109.5 -90.5q-61 -35 -137 -59.5t-154 -24.5 q-193 0 -291 196q-29 -55 -66.5 -99t-79.5 -75t-86 -47t-83 -16q-82 0 -128 57t-46 149zM180 53q0 -59 45 -59q49 0 92 30.5t78 80t62 109t45 118.5q-76 -25 -135.5 -60.5t-101.5 -75.5t-63.5 -78t-21.5 -65zM705 518q98 18 184 39t150.5 46.5t101.5 56t37 67.5 q0 35 -21.5 55.5t-75.5 20.5q-59 0 -109 -21.5t-96.5 -59.5t-88.5 -90t-82 -114z" />
<glyph unicode="&#xe7;" horiz-adv-x="909" d="M37 432q0 119 32.5 220.5t94 173t147.5 112.5t191 41q76 0 140.5 -18.5t110.5 -50t71.5 -75.5t25.5 -96q0 -70 -41 -114.5t-111 -44.5q-66 0 -107.5 48t-41.5 113q0 68 51 99q-29 4 -53.5 6t-46.5 2q-74 0 -132.5 -27.5t-99.5 -77t-63.5 -116t-22.5 -144.5 q0 -72 23.5 -143.5t63.5 -128.5t95.5 -93t116.5 -36q37 0 74 11t70.5 30.5t60.5 46.5t41 59l156 -49q-25 -45 -66 -88t-93 -76.5t-111.5 -54t-120.5 -20.5q-96 0 -179.5 39.5t-145 107.5t-96 157t-34.5 187zM338 -258q0 47 36 79t95 32q66 0 97.5 -29t31.5 -78 q0 -145 -231 -225l-23 65q70 6 113 56q-119 12 -119 100z" />
<glyph unicode="&#xe8;" horiz-adv-x="913" d="M70 492q0 94 34.5 181t94 154.5t141.5 107.5t176 40q74 0 137.5 -27.5t112.5 -78t82 -121t43 -154.5l-649 -223q12 -49 40.5 -95.5t67.5 -81t86 -55t96 -20.5q125 0 205 129l127 -47q-119 -223 -329 -224q-92 0 -176.5 43t-149 115t-102 165t-37.5 192zM213 473l258 94 q78 29 141.5 45.5t118.5 32.5q-6 84 -71.5 137.5t-153.5 53.5q-119 0 -196 -93.5t-97 -269.5zM331 1356l134 104q68 -113 129 -202.5t145 -173.5l-88 -82q-47 43 -88 81.5t-79 80.5t-75 89.5t-78 102.5z" />
<glyph unicode="&#xe9;" horiz-adv-x="913" d="M70 492q0 94 34.5 181t94 154.5t141.5 107.5t176 40q74 0 137.5 -27.5t112.5 -78t82 -121t43 -154.5l-649 -223q12 -49 40.5 -95.5t67.5 -81t86 -55t96 -20.5q125 0 205 129l127 -47q-119 -223 -329 -224q-92 0 -176.5 43t-149 115t-102 165t-37.5 192zM213 473l258 94 q78 29 141.5 45.5t118.5 32.5q-6 84 -71.5 137.5t-153.5 53.5q-119 0 -196 -93.5t-97 -269.5zM292 1106q84 84 145.5 174t129.5 202l133 -104q-41 -55 -78 -102.5t-75 -89.5t-78.5 -80.5t-88.5 -81.5z" />
<glyph unicode="&#xea;" horiz-adv-x="913" d="M70 492q0 94 34.5 181t94 154.5t141.5 107.5t176 40q74 0 137.5 -27.5t112.5 -78t82 -121t43 -154.5l-649 -223q12 -49 40.5 -95.5t67.5 -81t86 -55t96 -20.5q125 0 205 129l127 -47q-119 -223 -329 -224q-92 0 -176.5 43t-149 115t-102 165t-37.5 192zM200 1086 q41 41 77 79t69 78.5t63.5 86t65.5 100.5h123q33 -55 64.5 -100.5t64 -86t67.5 -78.5t76 -79l-88 -78q-72 61 -129 119.5t-117 128.5q-59 -70 -117.5 -128.5t-130.5 -119.5zM213 473l258 94q78 29 141.5 45.5t118.5 32.5q-6 84 -71.5 137.5t-153.5 53.5q-119 0 -196 -93.5 t-97 -269.5z" />
<glyph unicode="&#xeb;" horiz-adv-x="913" d="M70 492q0 94 34.5 181t94 154.5t141.5 107.5t176 40q74 0 137.5 -27.5t112.5 -78t82 -121t43 -154.5l-649 -223q12 -49 40.5 -95.5t67.5 -81t86 -55t96 -20.5q125 0 205 129l127 -47q-119 -223 -329 -224q-92 0 -176.5 43t-149 115t-102 165t-37.5 192zM213 473l258 94 q78 29 141.5 45.5t118.5 32.5q-6 84 -71.5 137.5t-153.5 53.5q-119 0 -196 -93.5t-97 -269.5zM213 1205q0 55 33.5 93t89.5 38q55 0 90.5 -38t35.5 -93q0 -53 -35.5 -94t-88.5 -41q-59 0 -92 36.5t-33 98.5zM587 1205q0 55 34 93t89 38t91 -38t36 -93q0 -53 -35.5 -94 t-89.5 -41q-59 0 -92 36.5t-33 98.5z" />
<glyph unicode="&#xec;" horiz-adv-x="655" d="M45 788v136h361q0 -135 3 -326.5t9 -458.5q18 0 35.5 1t35.5 1q39 0 77 -1t75 -3l12 -131q-137 -4 -279.5 -17.5t-285.5 -17.5v138q53 2 102.5 4t90.5 8q-4 227 -8.5 389t-6.5 278h-221zM63 1399l134 104q68 -113 129 -202.5t145 -173.5l-88 -82q-47 43 -88 81.5 t-79 80.5t-75 89.5t-78 102.5z" />
<glyph unicode="&#xed;" horiz-adv-x="655" d="M45 788v136h361q0 -135 3 -326.5t9 -458.5q18 0 35.5 1t35.5 1q39 0 77 -1t75 -3l12 -131q-137 -4 -279.5 -17.5t-285.5 -17.5v138q53 2 102.5 4t90.5 8q-4 227 -8.5 389t-6.5 278h-221zM149 1113q84 84 145.5 174t129.5 202l133 -104q-41 -55 -78 -102.5t-75 -89.5 t-78.5 -80.5t-88.5 -81.5z" />
<glyph unicode="&#xee;" horiz-adv-x="784" d="M32 1082q41 41 77 79t69 78.5t63.5 86t65.5 100.5h123q33 -55 64.5 -100.5t64 -86t67.5 -78.5t76 -79l-88 -78q-72 61 -129 119.5t-117 128.5q-59 -70 -117.5 -128.5t-130.5 -119.5zM119 788v136h361q0 -135 3 -326.5t9 -458.5q18 0 35.5 1t35.5 1q39 0 77 -1t75 -3 l12 -131q-137 -4 -279.5 -17.5t-285.5 -17.5v138q53 2 102.5 4t90.5 8q-4 227 -8.5 389t-6.5 278h-221z" />
<glyph unicode="&#xef;" horiz-adv-x="743" d="M56 1225q0 55 33.5 93t89.5 38q55 0 90.5 -38t35.5 -93q0 -53 -35.5 -94t-88.5 -41q-59 0 -92 36.5t-33 98.5zM106 788v136h361q0 -135 3 -326.5t9 -458.5q18 0 35.5 1t35.5 1q39 0 77 -1t75 -3l12 -131q-137 -4 -279.5 -17.5t-285.5 -17.5v138q53 2 102.5 4t90.5 8 q-4 227 -8.5 389t-6.5 278h-221zM430 1225q0 55 34 93t89 38t91 -38t36 -93q0 -53 -35.5 -94t-89.5 -41q-59 0 -92 36.5t-33 98.5z" />
<glyph unicode="&#xf0;" horiz-adv-x="886" d="M59 268q0 82 31 156t83 127t123 85t148 32q135 0 238 -152q-43 215 -180 432q-66 -31 -119 -53.5t-90 -34.5l-60 154q33 10 77 28.5t98 40.5q-41 53 -85 106.5t-98 108.5l117 119q61 -66 117.5 -132t103.5 -136q66 27 110 44t70 28l58 -142q-29 -10 -68 -26.5t-88 -38.5 q102 -164 150.5 -349.5t48.5 -349.5q0 -98 -30 -182t-82 -143.5t-123.5 -93t-155.5 -33.5t-156 33.5t-125 90t-83 130t-30 151.5zM211 262q0 -49 17.5 -92t49 -77t73.5 -53.5t91 -19.5q51 0 95.5 20.5t78 56.5t53 81t19.5 94t-19.5 92.5t-51 76t-74.5 52t-92 19.5 q-51 0 -95.5 -20.5t-76 -54.5t-50 -79t-18.5 -96z" />
<glyph unicode="&#xf1;" horiz-adv-x="1132" d="M55 844v139l101 -2q92 -2 151.5 9t98.5 11q0 -12 2 -33.5t3 -46t3 -48t2 -42.5v-30q25 51 63.5 94t84.5 74.5t94.5 49t91.5 17.5q109 0 173 -101t64 -282q0 -39 -10 -169t-27 -373q92 -4 138.5 -8.5t44.5 -4.5l-25 -135q-31 2 -60.5 3t-62.5 1q-57 0 -105.5 -2t-88.5 -6 q29 164 42 331t13 363q0 236 -133 236q-49 0 -102.5 -33t-99.5 -82t-75.5 -105.5t-29.5 -103.5q0 -35 3 -100.5t7 -136t7 -131t3 -84.5q14 -2 56 -10.5t112 -24.5l-33 -135q-55 16 -168.5 22t-290.5 6v138l185 2q0 18 -1 78.5t-3 152.5t-3 210t-1 251v25.5t2 27.5 q-98 -6 -152.5 -9t-73.5 -3zM256 1163q10 45 32.5 84t52 67.5t63.5 45t65 16.5q39 0 72.5 -18.5t65.5 -42t65.5 -42t76.5 -18.5q12 0 27.5 8.5t32 20.5t33 27.5t30.5 27.5l102 -90q-41 -53 -104.5 -91t-116.5 -38q-41 0 -76.5 20.5t-68.5 44t-63.5 44t-61.5 20.5 q-39 0 -68.5 -41t-40.5 -94z" />
<glyph unicode="&#xf2;" horiz-adv-x="989" d="M66 428q0 106 33.5 198.5t96 160t151.5 105.5t200 38q92 0 162.5 -36t120 -100.5t75 -154.5t25.5 -201t-30 -199.5t-85 -150t-133 -95.5t-176 -34q-102 0 -184 34t-138.5 96.5t-87 148.5t-30.5 190zM201 422q0 -68 20.5 -127t59 -103.5t92 -70t121.5 -25.5 q154 0 232.5 95.5t78.5 259.5q0 158 -78 247.5t-209 89.5q-72 0 -130 -27.5t-99 -76.5t-64.5 -116.5t-23.5 -145.5zM252 1346l134 104q68 -113 129 -202.5t145 -173.5l-88 -82q-47 43 -88 81.5t-79 80.5t-75 89.5t-78 102.5z" />
<glyph unicode="&#xf3;" horiz-adv-x="989" d="M66 428q0 106 33.5 198.5t96 160t151.5 105.5t200 38q92 0 162.5 -36t120 -100.5t75 -154.5t25.5 -201t-30 -199.5t-85 -150t-133 -95.5t-176 -34q-102 0 -184 34t-138.5 96.5t-87 148.5t-30.5 190zM201 422q0 -68 20.5 -127t59 -103.5t92 -70t121.5 -25.5 q154 0 232.5 95.5t78.5 259.5q0 158 -78 247.5t-209 89.5q-72 0 -130 -27.5t-99 -76.5t-64.5 -116.5t-23.5 -145.5zM383 1084q84 84 145.5 174t129.5 202l133 -104q-41 -55 -78 -102.5t-75 -89.5t-78.5 -80.5t-88.5 -81.5z" />
<glyph unicode="&#xf4;" horiz-adv-x="989" d="M66 428q0 106 33.5 198.5t96 160t151.5 105.5t200 38q92 0 162.5 -36t120 -100.5t75 -154.5t25.5 -201t-30 -199.5t-85 -150t-133 -95.5t-176 -34q-102 0 -184 34t-138.5 96.5t-87 148.5t-30.5 190zM180 1061q41 41 77 79t69 78.5t63.5 86t65.5 100.5h123 q33 -55 64.5 -100.5t64 -86t67.5 -78.5t76 -79l-88 -78q-72 61 -129 119.5t-117 128.5q-59 -70 -117.5 -128.5t-130.5 -119.5zM201 422q0 -68 20.5 -127t59 -103.5t92 -70t121.5 -25.5q154 0 232.5 95.5t78.5 259.5q0 158 -78 247.5t-209 89.5q-72 0 -130 -27.5t-99 -76.5 t-64.5 -116.5t-23.5 -145.5z" />
<glyph unicode="&#xf5;" horiz-adv-x="989" d="M66 428q0 106 33.5 198.5t96 160t151.5 105.5t200 38q92 0 162.5 -36t120 -100.5t75 -154.5t25.5 -201t-30 -199.5t-85 -150t-133 -95.5t-176 -34q-102 0 -184 34t-138.5 96.5t-87 148.5t-30.5 190zM175 1104q10 45 32.5 84t52 67.5t63.5 45t65 16.5q39 0 72.5 -18.5 t65.5 -42t65.5 -42t76.5 -18.5q12 0 27.5 8.5t32 20.5t33 27.5t30.5 27.5l102 -90q-41 -53 -104.5 -91t-116.5 -38q-41 0 -76.5 20.5t-68.5 44t-63.5 44t-61.5 20.5q-39 0 -68.5 -41t-40.5 -94zM201 422q0 -68 20.5 -127t59 -103.5t92 -70t121.5 -25.5q154 0 232.5 95.5 t78.5 259.5q0 158 -78 247.5t-209 89.5q-72 0 -130 -27.5t-99 -76.5t-64.5 -116.5t-23.5 -145.5z" />
<glyph unicode="&#xf6;" horiz-adv-x="989" d="M66 428q0 106 33.5 198.5t96 160t151.5 105.5t200 38q92 0 162.5 -36t120 -100.5t75 -154.5t25.5 -201t-30 -199.5t-85 -150t-133 -95.5t-176 -34q-102 0 -184 34t-138.5 96.5t-87 148.5t-30.5 190zM201 422q0 -68 20.5 -127t59 -103.5t92 -70t121.5 -25.5 q154 0 232.5 95.5t78.5 259.5q0 158 -78 247.5t-209 89.5q-72 0 -130 -27.5t-99 -76.5t-64.5 -116.5t-23.5 -145.5zM228 1184q0 55 33.5 93t89.5 38q55 0 90.5 -38t35.5 -93q0 -53 -35.5 -94t-88.5 -41q-59 0 -92 36.5t-33 98.5zM602 1184q0 55 34 93t89 38t91 -38t36 -93 q0 -53 -35.5 -94t-89.5 -41q-59 0 -92 36.5t-33 98.5z" />
<glyph unicode="&#xf7;" horiz-adv-x="946" d="M102 571l13 144h747v-144h-760zM330 269q0 68 40 111.5t110 43.5q66 0 107.5 -43.5t41.5 -111.5q0 -63 -41 -113.5t-106 -50.5q-72 0 -112 44t-40 120zM354 1033q0 68 40 111.5t110 43.5q66 0 107.5 -43.5t41.5 -111.5q0 -63 -41 -113.5t-106 -50.5q-72 0 -112 44 t-40 120z" />
<glyph unicode="&#xf8;" d="M49 428q0 111 34 203t97.5 158.5t151.5 103.5t198 37q113 0 197 -53q4 6 16.5 21t24.5 31.5t22.5 31t12.5 16.5l112 -51q-6 -6 -20 -25.5t-30.5 -41t-31 -41t-18.5 -27.5q29 -37 48.5 -84.5t30.5 -96.5t15 -94t4 -78q0 -111 -29.5 -198.5t-85 -150t-134 -96.5t-177.5 -34 q-133 0 -225 49l-112 -119l-82 64q8 8 22 23.5t29.5 34l31 37t25.5 28.5q-68 78 -97.5 164t-29.5 188zM184 422q0 -70 19.5 -128t62.5 -112q43 59 97.5 140t107.5 162t99 153t75 113q-65 38 -143 38q-72 0 -130.5 -27.5t-100.5 -75.5t-64.5 -115.5t-22.5 -147.5zM362 117 q55 -20 115 -21q143 0 226 92.5t83 262.5q0 125 -57 217q-76 -125 -131 -213t-98 -150.5t-75 -106.5t-63 -81z" />
<glyph unicode="&#xf9;" horiz-adv-x="1091" d="M25 936q8 2 18 2h63q23 0 69 -1t98.5 -3t99.5 -3t69 -1v-154h-118q0 -33 -3.5 -96.5t-3.5 -167.5v-193q0 -92 60.5 -149t152.5 -57q184 0 185 399q0 18 -2 55t-3 79t-3 79t-2 55l-119 8l10 156q121 -16 223.5 -21t200.5 -5v-152h-135q-23 0 -25 2q-2 -4 -2 -41v-276 q0 -23 -4 -53.5t-4 -78.5v-92q0 -55 24.5 -98t53.5 -43q41 0 71 80l119 -25q-23 -100 -75 -154.5t-121 -54.5q-78 0 -121 62.5t-43 148.5q-18 -90 -87 -137t-167 -47q-74 0 -136.5 24.5t-106.5 67.5t-67.5 102.5t-23.5 131.5l2 501l-16 2q-25 0 -123 -6zM274 1385l134 104 q68 -113 129 -202.5t145 -173.5l-88 -82q-47 43 -88 81.5t-79 80.5t-75 89.5t-78 102.5z" />
<glyph unicode="&#xfa;" horiz-adv-x="1091" d="M25 936q8 2 18 2h63q23 0 69 -1t98.5 -3t99.5 -3t69 -1v-154h-118q0 -33 -3.5 -96.5t-3.5 -167.5v-193q0 -92 60.5 -149t152.5 -57q184 0 185 399q0 18 -2 55t-3 79t-3 79t-2 55l-119 8l10 156q121 -16 223.5 -21t200.5 -5v-152h-135q-23 0 -25 2q-2 -4 -2 -41v-276 q0 -23 -4 -53.5t-4 -78.5v-92q0 -55 24.5 -98t53.5 -43q41 0 71 80l119 -25q-23 -100 -75 -154.5t-121 -54.5q-78 0 -121 62.5t-43 148.5q-18 -90 -87 -137t-167 -47q-74 0 -136.5 24.5t-106.5 67.5t-67.5 102.5t-23.5 131.5l2 501l-16 2q-25 0 -123 -6zM426 1098 q84 84 145.5 174t129.5 202l133 -104q-41 -55 -78 -102.5t-75 -89.5t-78.5 -80.5t-88.5 -81.5z" />
<glyph unicode="&#xfb;" horiz-adv-x="1091" d="M25 936q8 2 18 2h63q23 0 69 -1t98.5 -3t99.5 -3t69 -1v-154h-118q0 -33 -3.5 -96.5t-3.5 -167.5v-193q0 -92 60.5 -149t152.5 -57q184 0 185 399q0 18 -2 55t-3 79t-3 79t-2 55l-119 8l10 156q121 -16 223.5 -21t200.5 -5v-152h-135q-23 0 -25 2q-2 -4 -2 -41v-276 q0 -23 -4 -53.5t-4 -78.5v-92q0 -55 24.5 -98t53.5 -43q41 0 71 80l119 -25q-23 -100 -75 -154.5t-121 -54.5q-78 0 -121 62.5t-43 148.5q-18 -90 -87 -137t-167 -47q-74 0 -136.5 24.5t-106.5 67.5t-67.5 102.5t-23.5 131.5l2 501l-16 2q-25 0 -123 -6zM188 1108 q41 41 77 79t69 78.5t63.5 86t65.5 100.5h123q33 -55 64.5 -100.5t64 -86t67.5 -78.5t76 -79l-88 -78q-72 61 -129 119.5t-117 128.5q-59 -70 -117.5 -128.5t-130.5 -119.5z" />
<glyph unicode="&#xfc;" horiz-adv-x="1091" d="M25 936q8 2 18 2h63q23 0 69 -1t98.5 -3t99.5 -3t69 -1v-154h-118q0 -33 -3.5 -96.5t-3.5 -167.5v-193q0 -92 60.5 -149t152.5 -57q184 0 185 399q0 18 -2 55t-3 79t-3 79t-2 55l-119 8l10 156q121 -16 223.5 -21t200.5 -5v-152h-135q-23 0 -25 2q-2 -4 -2 -41v-276 q0 -23 -4 -53.5t-4 -78.5v-92q0 -55 24.5 -98t53.5 -43q41 0 71 80l119 -25q-23 -100 -75 -154.5t-121 -54.5q-78 0 -121 62.5t-43 148.5q-18 -90 -87 -137t-167 -47q-74 0 -136.5 24.5t-106.5 67.5t-67.5 102.5t-23.5 131.5l2 501l-16 2q-25 0 -123 -6zM234 1225 q0 55 33.5 93t89.5 38q55 0 90.5 -38t35.5 -93q0 -53 -35.5 -94t-88.5 -41q-59 0 -92 36.5t-33 98.5zM608 1225q0 55 34 93t89 38t91 -38t36 -93q0 -53 -35.5 -94t-89.5 -41q-59 0 -92 36.5t-33 98.5z" />
<glyph unicode="&#xfd;" horiz-adv-x="1089" d="M2 965q49 6 173 13t337 13l6 -155q-18 0 -36.5 1t-35.5 1q-27 0 -52 -1t-50 -3q12 -33 33.5 -84.5t48.5 -110.5t56.5 -122.5t57 -123t53 -108.5t42.5 -80q16 31 41.5 86t54.5 125.5t57.5 153.5t49.5 173l-146 7v153q33 0 105.5 -2t153.5 -3t154 -3t109 -2v-154l-213 2 q-92 -233 -161.5 -393t-128.5 -264q-127 -223 -244 -332.5t-236 -109.5q-66 0 -107.5 45t-41.5 110q0 70 43 114t108 44q55 0 91 -29.5t36 -81.5v-11t-2 -11q82 55 130.5 120.5t72.5 133.5q-55 98 -151.5 281.5t-231.5 469.5q-27 -2 -66.5 -6t-93.5 -8zM563 1049 q84 84 145.5 174t129.5 202l133 -104q-41 -55 -78 -102.5t-75 -89.5t-78.5 -80.5t-88.5 -81.5z" />
<glyph unicode="&#xfe;" horiz-adv-x="1058" d="M94 -207h135q0 45 -1 88t-1 84q0 932 82 1245q-2 -2 -18 -2h-21q-23 0 -62.5 6.5t-98.5 22.5l32 149q100 -31 232 -30q29 0 58.5 1t60.5 3q-20 -111 -43 -269.5t-54 -381.5q127 158 269 157q76 0 139 -44t110.5 -116.5t74 -167t26.5 -194.5q0 -92 -30 -175t-82 -144.5 t-122.5 -97.5t-154.5 -36q-98 0 -168 52.5t-88 144.5v-164h-2v-268h-273v137zM379 422q0 -385 194 -385q147 0 224 93t77 267q0 66 -18 124.5t-51 102.5t-79 69.5t-103 25.5q-135 0 -189.5 -67.5t-54.5 -229.5z" />
<glyph unicode="&#xff;" horiz-adv-x="1089" d="M2 965q49 6 173 13t337 13l6 -155q-18 0 -36.5 1t-35.5 1q-27 0 -52 -1t-50 -3q12 -33 33.5 -84.5t48.5 -110.5t56.5 -122.5t57 -123t53 -108.5t42.5 -80q16 31 41.5 86t54.5 125.5t57.5 153.5t49.5 173l-146 7v153q33 0 105.5 -2t153.5 -3t154 -3t109 -2v-154l-213 2 q-92 -233 -161.5 -393t-128.5 -264q-127 -223 -244 -332.5t-236 -109.5q-66 0 -107.5 45t-41.5 110q0 70 43 114t108 44q55 0 91 -29.5t36 -81.5v-11t-2 -11q82 55 130.5 120.5t72.5 133.5q-55 98 -151.5 281.5t-231.5 469.5q-27 -2 -66.5 -6t-93.5 -8zM334 1225 q0 55 33.5 93t89.5 38q55 0 90.5 -38t35.5 -93q0 -53 -35.5 -94t-88.5 -41q-59 0 -92 36.5t-33 98.5zM708 1225q0 55 34 93t89 38t91 -38t36 -93q0 -53 -35.5 -94t-89.5 -41q-59 0 -92 36.5t-33 98.5z" />
<glyph unicode="&#x152;" horiz-adv-x="2007" d="M86 549q0 266 154 555q180 344 422 344q217 0 389 -330l-2 176h-41v154h180q135 0 319.5 -6.5t442.5 -20.5q-78 -139 -78 -411h-148q0 23 -1 45t-1 47q0 47 3.5 94t9.5 88q-25 0 -88.5 2t-137 4t-144.5 4t-108 2h-51v-452l252 10q-4 27 -14 63.5t-27 88.5l146 49 q66 -197 65 -316q0 -41 -7 -103.5t-22 -154.5l-137 23q2 12 3 27.5t2 38t1 56v85.5q-45 -6 -108.5 -10.5t-151.5 -10.5l2 -518q88 -4 216 -15.5t321 -33.5q16 104 24.5 173t8.5 103h145q0 -29 -6 -89t-14.5 -127.5t-14.5 -129t-6 -94.5q-174 23 -350 42t-363 19h-55t-55 -2 q12 39 12 99q0 20 -2 56t-2 52q-252 -397 -530 -397q-104 0 -188.5 58.5t-142.5 156.5t-90 229t-32 277zM238 489q0 -100 20.5 -189t61 -156.5t102 -106.5t141.5 -39q86 0 169 46t149.5 121t106.5 168t40 187q0 156 -27.5 294t-80 240.5t-125 162t-160.5 59.5 q-90 0 -163 -66.5t-125 -176t-80.5 -251t-28.5 -293.5z" />
<glyph unicode="&#x153;" horiz-adv-x="1316" d="M43 465q0 74 23.5 155.5t66.5 151.5t104.5 115t135.5 45q86 0 157.5 -34t108.5 -120q27 43 63.5 81t79.5 66.5t90.5 45t96.5 16.5q61 0 106 -37t80 -101.5t61.5 -149.5t51.5 -181q-47 0 -131 -3t-170 -6t-156 -6t-90 -3q2 -72 23.5 -142.5t53 -128t72.5 -92.5t84 -35 q104 0 179 228l147 -47q-33 -104 -63.5 -170t-64.5 -102t-75 -49t-94 -13q-121 0 -213 87t-152 234q-104 -266 -272 -266q-63 0 -118.5 39t-96.5 102.5t-64.5 146.5t-23.5 173zM182 465q0 -59 8.5 -115.5t27 -101.5t47 -71.5t69.5 -26.5q45 0 85 32.5t69.5 89t47 130 t17.5 155.5q0 125 -41 181.5t-139 56.5q-31 0 -65 -37t-61.5 -88.5t-46 -108.5t-18.5 -96zM739 653l320 6q-41 188 -90 189q-168 0 -230 -195z" />
<glyph unicode="&#x178;" horiz-adv-x="1404" d="M25 1239v152q375 0 542 34l27 -145q-49 -10 -96 -17.5t-95 -11.5q27 -31 71 -97.5t91 -138t91 -137t71 -96.5q27 45 95.5 170t176.5 344q-47 4 -100 12.5t-108 18.5l28 152q84 -18 149.5 -26.5t116.5 -8.5q41 0 113 11t170 34l37 -143q-39 -12 -96.5 -24.5t-139.5 -29.5 q-27 -51 -72.5 -129t-113.5 -194q-61 -92 -100 -172t-62.5 -156t-32 -155.5t-8.5 -172.5q0 -47 2 -97t6 -110q0 2 25 3h25q41 0 88 -6.5t100 -16.5l-27 -141q-29 6 -63.5 10t-73.5 4q-31 0 -89 -4t-122.5 -10t-122 -10.5t-84.5 -4.5v152q123 0 191 6q-4 66 -8 124t-4 114 q0 88 7 170t19 157q-121 199 -228.5 344.5t-211.5 249.5zM392 1667q0 55 33.5 93t89.5 38q55 0 90.5 -38t35.5 -93q0 -53 -35.5 -94t-88.5 -41q-59 0 -92 36.5t-33 98.5zM766 1667q0 55 34 93t89 38t91 -38t36 -93q0 -53 -35.5 -94t-89.5 -41q-59 0 -92 36.5t-33 98.5z" />
<glyph unicode="&#x2c6;" horiz-adv-x="788" d="M59 1145q41 41 77 79t69 78.5t63.5 86t65.5 100.5h123q33 -55 64.5 -100.5t64 -86t67.5 -78.5t76 -79l-88 -78q-72 61 -129 119.5t-117 128.5q-59 -70 -117.5 -128.5t-130.5 -119.5z" />
<glyph unicode="&#x2dc;" horiz-adv-x="849" d="M66 1163q10 45 32.5 84t52 67.5t63.5 45t65 16.5q39 0 72.5 -18.5t65.5 -42t65.5 -42t76.5 -18.5q12 0 27.5 8.5t32 20.5t33 27.5t30.5 27.5l102 -90q-41 -53 -104.5 -91t-116.5 -38q-41 0 -76.5 20.5t-68.5 44t-63.5 44t-61.5 20.5q-39 0 -68.5 -41t-40.5 -94z" />
<glyph unicode="&#x2000;" horiz-adv-x="975" />
<glyph unicode="&#x2001;" horiz-adv-x="1951" />
<glyph unicode="&#x2002;" horiz-adv-x="975" />
<glyph unicode="&#x2003;" horiz-adv-x="1951" />
<glyph unicode="&#x2004;" horiz-adv-x="650" />
<glyph unicode="&#x2005;" horiz-adv-x="487" />
<glyph unicode="&#x2006;" horiz-adv-x="325" />
<glyph unicode="&#x2007;" horiz-adv-x="325" />
<glyph unicode="&#x2008;" horiz-adv-x="243" />
<glyph unicode="&#x2009;" horiz-adv-x="390" />
<glyph unicode="&#x200a;" horiz-adv-x="108" />
<glyph unicode="&#x2010;" horiz-adv-x="579" d="M35 612v156h215q23 0 45 2t43 2h211v-139q-35 0 -106.5 -3t-149.5 -7.5t-149.5 -7.5t-108.5 -3z" />
<glyph unicode="&#x2011;" horiz-adv-x="579" d="M35 612v156h215q23 0 45 2t43 2h211v-139q-35 0 -106.5 -3t-149.5 -7.5t-149.5 -7.5t-108.5 -3z" />
<glyph unicode="&#x2012;" horiz-adv-x="579" d="M35 612v156h215q23 0 45 2t43 2h211v-139q-35 0 -106.5 -3t-149.5 -7.5t-149.5 -7.5t-108.5 -3z" />
<glyph unicode="&#x2013;" horiz-adv-x="929" d="M35 610v152h198q23 0 41.5 3t38.5 3h580v-137q-20 0 -87 -1t-155 -4t-187 -5.5t-187.5 -5.5t-154 -4t-87.5 -1z" />
<glyph unicode="&#x2014;" horiz-adv-x="1341" d="M29 627v141h420q41 0 86 2t83 2h703v-127q-41 0 -139.5 -1t-226.5 -3t-271 -5t-273 -5t-232.5 -3t-149.5 -1z" />
<glyph unicode="&#x2018;" horiz-adv-x="395" d="M45 1202q0 211 266 324l29 -92q-80 -8 -133 -84q139 -23 139 -144q0 -72 -41 -122t-110 -50q-72 0 -111 46t-39 122z" />
<glyph unicode="&#x2019;" horiz-adv-x="376" d="M37 1335q0 72 41 122t110 50q72 0 112 -46t40 -122q0 -209 -270 -325l-29 94q84 8 133 84q-137 18 -137 143z" />
<glyph unicode="&#x201a;" horiz-adv-x="382" d="M47 98q0 70 42 120t108 50q76 0 113.5 -47t37.5 -119q0 -209 -266 -325l-29 96q80 6 133 80q-139 18 -139 145z" />
<glyph unicode="&#x201c;" horiz-adv-x="788" d="M45 1202q0 211 266 324l29 -92q-80 -8 -133 -84q139 -23 139 -144q0 -72 -41 -122t-110 -50q-72 0 -111 46t-39 122zM440 1202q0 211 266 324l29 -92q-80 -8 -133 -84q139 -23 139 -144q0 -72 -41 -122t-110 -50q-72 0 -111 46t-39 122z" />
<glyph unicode="&#x201d;" horiz-adv-x="753" d="M37 1335q0 72 41 122t110 50q72 0 112 -46t40 -122q0 -209 -270 -325l-29 94q84 8 133 84q-137 18 -137 143zM414 1335q0 72 41 122t110 50q72 0 112 -46t40 -122q0 -209 -270 -325l-29 94q84 8 133 84q-137 18 -137 143z" />
<glyph unicode="&#x201e;" horiz-adv-x="768" d="M47 98q0 70 42 120t108 50q76 0 113.5 -47t37.5 -119q0 -209 -266 -325l-29 96q80 6 133 80q-139 18 -139 145zM430 98q0 70 42 120t108 50q76 0 113.5 -47t37.5 -119q0 -209 -266 -325l-29 96q80 6 133 80q-139 18 -139 145z" />
<glyph unicode="&#x2022;" horiz-adv-x="768" d="M68 649q0 72 23.5 138.5t66.5 118.5t101 83t128 31q68 0 126 -31t101 -81t68 -117.5t25 -141.5q0 -78 -26 -145.5t-69 -117.5t-101 -78.5t-124 -28.5q-70 0 -128 30.5t-101 82.5t-66.5 119t-23.5 138z" />
<glyph unicode="&#x2026;" horiz-adv-x="1656" d="M100 113q0 68 40 111.5t110 43.5q66 0 107.5 -43.5t41.5 -111.5q0 -63 -41 -113.5t-106 -50.5q-72 0 -112 44t-40 120zM684 82q0 68 40 111.5t110 43.5q66 0 107.5 -43.5t41.5 -111.5q0 -63 -41 -113.5t-106 -50.5q-72 0 -112 44t-40 120zM1245 121q0 68 40 111.5 t110 43.5q66 0 107.5 -43.5t41.5 -111.5q0 -63 -41 -113.5t-106 -50.5q-72 0 -112 44t-40 120z" />
<glyph unicode="&#x202f;" horiz-adv-x="390" />
<glyph unicode="&#x2039;" horiz-adv-x="661" d="M25 575l503 373l93 -131q-100 -78 -194.5 -135t-188.5 -100q78 -41 161.5 -97.5t175.5 -134.5l-100 -117z" />
<glyph unicode="&#x203a;" horiz-adv-x="630" d="M43 352q37 29 82 63t91 64.5t90 58t79 44.5q-80 37 -162 87t-170 111l94 129l451 -334l-471 -358z" />
<glyph unicode="&#x205f;" horiz-adv-x="487" />
<glyph unicode="&#x20ac;" horiz-adv-x="1234" d="M18 373l39 153h101v19q0 25 3 55.5t7 69.5h-145l36 155h136q25 121 72.5 224.5t114.5 178.5t147.5 116.5t170.5 41.5q104 0 281 -67l35 106l141 -6q-35 -94 -66.5 -178t-41.5 -149l-134 -13q4 23 5.5 31t1.5 12q0 29 -18.5 50.5t-45.5 35t-58.5 19.5t-56.5 6 q-135 0 -250.5 -107.5t-175.5 -300.5h615l-70 -155h-573q-2 -20 -3 -36t-1 -32q0 -43 6 -76h508l-70 -153h-397q70 -156 172 -248t254 -92q197 0 372 176l95 -113q-211 -217 -387 -217q-244 0 -414 118t-246 376h-160z" />
<glyph unicode="&#x2122;" horiz-adv-x="1691" d="M70 1049q12 82 12 262q29 2 108.5 6t176 8t189.5 10t146 15v-320h-108v197q-57 0 -174 -6q0 -129 6 -267.5t16 -287.5q23 2 49.5 2h61.5v-107h-94q-43 0 -76 -1t-55 -1q-29 0 -59.5 1t-65.5 3l24 113q16 -2 43 -4t62 -4q-10 143 -14.5 236t-7.5 152.5t-3 96.5v68l-117 -7 q0 -16 1.5 -31.5t1.5 -31.5q0 -29 -2.5 -57.5t-6.5 -61.5zM811 530v109q20 0 52 2t79 8q-4 147 -7 231.5t-3 118.5q0 57 2 105.5t6 95.5q-10 -2 -29 -2q-53 0 -72.5 2t-23.5 2v113h240q23 -86 63.5 -200t95.5 -273q16 47 41 108.5t48.5 126t41 126t17.5 108.5l270 -27 l-12 -113q-27 4 -64.5 7.5t-87.5 13.5l2 -549q29 4 61 5t75 1h34l27 -108q-14 -4 -56 -7.5t-90 -6.5t-94.5 -8t-66.5 -11l10 481q-18 -41 -38.5 -103.5t-41 -126t-39 -118.5t-28.5 -82l-62 -2q-6 35 -15 75t-22.5 93t-33 121.5t-46.5 159.5q0 -80 2.5 -197t2.5 -266 q-16 0 -49 -2t-70 -4t-71 -4.5t-48 -2.5z" />
<glyph unicode="&#x25fc;" horiz-adv-x="880" d="M0 0v881h881v-881h-881z" />
<glyph unicode="&#xfb01;" horiz-adv-x="1378" d="M61 94l187 17l-17 600h-133v153l129 -2q-4 31 -6 57.5t-2 55.5q0 446 373 446q190 0 190 -164q0 -66 -40 -109.5t-105 -43.5q-59 0 -103.5 39t-44.5 96q0 39 15 59q-37 -6 -63.5 -32.5t-45 -68.5t-28 -95t-9.5 -111q0 -82 13 -131q131 -6 192 -6q16 0 27.5 1t17.5 1v-139 h-168h-28.5t-30.5 -4l33 -602h178v-142q-147 -4 -274.5 -10t-241.5 -18zM768 788v136h361q0 -135 3 -326.5t9 -458.5q18 0 35.5 1t35.5 1q39 0 77 -1t75 -3l12 -131q-137 -4 -279.5 -17.5t-285.5 -17.5v138q53 2 102.5 4t90.5 8q-4 227 -8.5 389t-6.5 278h-221zM827 1227 q0 66 42 110.5t108 44.5t109 -44.5t43 -110.5t-42 -115t-108 -49q-70 0 -111 44t-41 120z" />
<glyph unicode="&#xfb02;" horiz-adv-x="1476" d="M61 94l187 17l-17 600h-133v153l129 -2q-4 31 -6 57.5t-2 55.5q0 446 373 446q190 0 190 -164q0 -66 -40 -109.5t-105 -43.5q-59 0 -103.5 39t-44.5 96q0 39 15 59q-37 -6 -63.5 -32.5t-45 -68.5t-28 -95t-9.5 -111q0 -82 13 -131q131 -6 192 -6q16 0 27.5 1t17.5 1v-139 h-168h-28.5t-30.5 -4l33 -602h178v-142q-147 -4 -274.5 -10t-241.5 -18zM858 98q66 10 124 14.5t112 6.5q0 29 1 88t4 132t5 154.5t5 158.5t4 140.5t1 100.5q0 111 -5 199t-15 159h-217v138h356q18 -176 18 -392q0 -41 -2 -111.5t-4 -154.5t-5 -175t-5 -174t-4 -152.5 t-2 -108.5h211v-137q-199 0 -336 -5.5t-229 -15.5z" />
</font>
</defs>
</svg>
